<svg xmlns="http://www.w3.org/2000/svg" width="29" height="19" viewBox="0 0 29 19" fill="none"><path d="M9.59717 14.197C9.50272 14.2049 9.41146 14.1963 9.31557 14.1978C9.21969 14.1993 9.40058 14.1988 9.40224 14.2163C9.36506 14.2021 9.32653 14.1913 9.28725 14.1841L9.17306 14.1449C9.18959 14.1166 9.36173 14.2501 9.21277 14.1583C9.17239 14.1316 8.94676 13.9945 9.05412 14.0643C9.16147 14.1341 8.95942 13.9693 8.92585 13.9321C8.85699 13.8603 8.79718 13.7373 8.88352 13.8969C8.82949 13.7994 8.76579 13.6996 8.71709 13.6055C8.69393 13.5637 8.67468 13.5188 8.65371 13.4765C8.56065 13.2872 8.67241 13.5596 8.64411 13.4339C8.39974 12.5627 8.38683 11.4782 7.65893 10.8299C6.93103 10.1817 5.85445 10.0908 4.87927 10.0331C4.6977 10.0203 4.51659 10.0096 4.33406 9.99255L4.08695 9.96319C3.95888 9.954 4.1668 9.97205 4.16872 9.98057C4.10304 9.96289 4.03642 9.94876 3.96909 9.93828C3.88947 9.92041 3.81106 9.8978 3.72564 9.87453C3.64022 9.85126 3.62546 9.83668 3.57392 9.82144C3.45052 9.78212 3.65281 9.84619 3.646 9.85667C3.57135 9.82124 3.4994 9.78062 3.43075 9.73511C3.38463 9.70649 3.34017 9.67543 3.29754 9.64206C3.29754 9.64206 3.45995 9.79342 3.32997 9.66384C3.25313 9.58718 3.18115 9.51165 3.11037 9.43138C3.0925 9.41304 2.99803 9.30902 3.09392 9.41943C3.18981 9.52984 3.08815 9.39388 3.06181 9.36849C2.95209 9.19531 2.85546 9.01442 2.77267 8.82727C2.74977 8.77649 2.72908 8.72521 2.70619 8.67443C2.63053 8.50129 2.71482 8.71276 2.7153 8.71489C2.66958 8.61159 2.63316 8.5045 2.60652 8.39482C2.53893 8.1863 2.48007 7.97581 2.4212 7.76533C2.27203 7.21495 1.6933 6.78148 1.09125 6.94618C0.527485 7.09779 0.0804985 7.66611 0.24097 8.25645C0.491793 9.16653 0.789438 10.0504 1.36673 10.8131C1.99303 11.6409 2.94523 12.0238 3.96092 12.1597C4.36274 12.2146 4.77022 12.2235 5.17548 12.253C5.24786 12.2591 5.73357 12.2593 5.76227 12.3155C5.76227 12.3155 5.4948 12.2572 5.72517 12.3239C5.76607 12.3326 5.80697 12.3412 5.84617 12.3525C5.88537 12.3639 5.96068 12.3827 6.01706 12.3991C6.07344 12.4155 6.21054 12.4853 6.0959 12.4238C5.937 12.3388 6.23906 12.5102 6.09302 12.4111C5.99413 12.3483 6.09304 12.411 6.11501 12.4374C5.98088 12.2081 6.12318 12.4736 6.1514 12.5277C6.22496 12.661 6.10966 12.3424 6.14372 12.4936C6.15008 12.5369 6.1597 12.5796 6.1725 12.6214C6.19792 12.7342 6.22383 12.8492 6.24925 12.9621C6.33669 13.5014 6.48915 14.0281 6.70348 14.5311C7.16662 15.5702 8.29004 16.4895 9.50356 16.3952C9.80283 16.397 10.0936 16.2917 10.3212 16.0991C10.5326 15.9012 10.6597 15.6325 10.6765 15.3478C10.6806 14.8166 10.2442 14.1609 9.62065 14.2096L9.59717 14.197Z" fill="#FA7268"></path><path d="M21.2449 11.8714C21.186 11.7971 21.1425 11.7165 21.0881 11.6375C21.0338 11.5585 21.1344 11.7088 21.1208 11.7199C21.112 11.681 21.0996 11.643 21.0839 11.6063L21.0532 11.4895C21.0859 11.4876 21.0702 11.7048 21.064 11.53C21.0639 11.4816 21.0529 11.2178 21.0543 11.3458C21.0558 11.4739 21.0809 11.2143 21.0933 11.1658C21.1148 11.0687 21.184 10.9507 21.0991 11.111C21.1503 11.012 21.198 10.9037 21.2494 10.811C21.2713 10.7685 21.298 10.7276 21.3216 10.6868C21.4276 10.5043 21.2628 10.7484 21.3517 10.6552C21.9414 9.96881 22.8368 9.35688 22.9729 8.39172C23.1089 7.42655 22.5877 6.48015 22.0952 5.63649C22.0052 5.47827 21.9137 5.32162 21.8267 5.16025L21.7142 4.93831C21.6508 4.82662 21.7511 5.00968 21.745 5.016C21.7234 4.95154 21.6982 4.88826 21.6696 4.82641C21.6403 4.75023 21.6157 4.67244 21.5877 4.58845C21.5597 4.50445 21.5636 4.48409 21.5478 4.43274C21.5121 4.30823 21.5709 4.51212 21.5584 4.51227C21.5465 4.43049 21.5404 4.34809 21.5403 4.26573C21.5385 4.21148 21.5397 4.15725 21.5439 4.10328C21.5439 4.10328 21.5079 4.32236 21.5437 4.14234C21.5649 4.03589 21.5879 3.93411 21.6154 3.83071C21.6208 3.80566 21.655 3.66938 21.6163 3.81039C21.5775 3.9514 21.6343 3.79143 21.6409 3.75543C21.7242 3.56811 21.8212 3.38741 21.931 3.21476C21.9606 3.16755 21.9918 3.12191 22.0214 3.07471C22.1236 2.91576 21.9943 3.10314 21.9928 3.10472C22.0534 3.0094 22.1223 2.91973 22.1989 2.83675C22.3349 2.66491 22.4775 2.49924 22.6201 2.33357C22.9954 1.90432 23.0354 1.18235 22.5646 0.772574C22.1259 0.387397 21.4051 0.330412 21.0027 0.791218C20.3843 1.50447 19.8137 2.24216 19.4989 3.14543C19.1571 4.12555 19.3663 5.13031 19.8162 6.05101C19.9932 6.41588 20.2117 6.75996 20.4118 7.11363C20.4468 7.17724 20.7159 7.58161 20.685 7.63664C20.685 7.63664 20.5853 7.38169 20.6575 7.6104C20.673 7.64925 20.6884 7.68811 20.7007 7.727C20.713 7.7659 20.7391 7.83902 20.7567 7.89503C20.7743 7.95103 20.7922 8.10384 20.7798 7.97437C20.7625 7.79498 20.7873 8.14138 20.7889 7.96489C20.7863 7.8478 20.7889 7.9649 20.7791 7.99781C20.8956 7.75905 20.7535 8.02467 20.7242 8.07812C20.654 8.21326 20.8552 7.94069 20.7483 8.05285C20.7158 8.08211 20.6856 8.11379 20.6579 8.14762C20.578 8.23135 20.4967 8.31665 20.4169 8.40037C20.0164 8.77213 19.6626 9.19099 19.3627 9.64821C18.7547 10.6096 18.6123 12.0543 19.3635 13.012C19.5279 13.2621 19.7767 13.4457 20.0631 13.5284C20.3451 13.5946 20.6392 13.5514 20.8854 13.4077C21.3298 13.1166 21.6336 12.3899 21.2474 11.8979L21.2449 11.8714Z" fill="#FA7268"></path><path d="M14.7167 12.131C14.6714 12.1031 14.6279 12.0727 14.5822 12.0427C14.5365 12.0127 14.4764 11.939 14.5641 12.0333C14.6518 12.1277 14.4766 11.93 14.4467 11.8987C14.3063 11.7535 14.4519 11.9221 14.4567 11.9434C14.4223 11.902 14.3929 11.8568 14.3691 11.8088C14.3139 11.716 14.2691 11.6187 14.2221 11.5219C14.1358 11.3422 14.2831 11.7319 14.2063 11.4517C14.1856 11.3601 14.1645 11.2664 14.1439 11.1748C14.1319 11.1216 14.095 10.8458 14.1046 11.0002C14.1142 11.1547 14.0969 10.9661 14.1031 10.9222C14.1092 10.8784 14.1019 10.795 14.1032 10.7298C14.1118 10.4889 14.1341 10.2486 14.1701 10.0099C14.1677 9.99926 14.1978 9.8381 14.177 9.95914C14.1561 10.0802 14.1915 9.89099 14.1961 9.86085L14.2824 9.48119C14.418 8.91365 14.6161 8.33875 14.5113 7.75153C14.4442 7.46114 14.317 7.18786 14.1374 6.94856C13.9578 6.70926 13.7297 6.509 13.4671 6.36011C13.3114 6.2587 13.1416 6.17613 12.9786 6.08307C12.8997 6.03818 12.8226 5.99067 12.745 5.94103C12.6674 5.89139 12.5319 5.74739 12.4694 5.73461C12.4694 5.73461 12.6263 5.87156 12.5388 5.78834L12.4242 5.68662C12.3585 5.62536 12.2938 5.56162 12.23 5.49544C12.1662 5.42926 12.1053 5.36243 12.0473 5.29494C12.0227 5.26693 11.9976 5.23678 11.9747 5.20615C11.9517 5.17552 11.819 4.99287 11.9177 5.1362C12.0164 5.27954 11.8504 5.03054 11.8286 4.99516C11.7794 4.91899 11.734 4.83971 11.6913 4.76206C11.6486 4.68442 11.6072 4.60202 11.5684 4.52126C11.5438 4.4731 11.524 4.42609 11.5021 4.37957C11.4802 4.33305 11.3932 4.14008 11.4686 4.30208C11.5441 4.46409 11.4253 4.17089 11.4071 4.11011C11.3845 4.01003 11.362 3.90995 11.3394 3.80987C11.3169 3.70978 11.2886 3.58415 11.2741 3.46883C11.2654 3.4305 11.2573 3.3943 11.2486 3.35597C11.2225 3.13812 11.2044 3.33238 11.2539 3.37939C11.1815 3.30175 11.2531 2.86721 11.2615 2.76238C11.2662 2.71209 11.2709 2.66181 11.2773 2.60891C11.2838 2.556 11.2995 2.35109 11.2848 2.51996C11.2702 2.68883 11.2891 2.53912 11.2848 2.51996C11.3022 2.44445 11.3217 2.36845 11.3393 2.28394C11.4897 1.73098 11.2218 1.07085 10.621 0.915332C10.0615 0.77063 9.37345 1.04196 9.21334 1.63292C8.96962 2.55817 8.9623 3.52569 9.19202 4.44969C9.42174 5.37369 9.88141 6.22562 10.5303 6.92993C10.8608 7.282 11.2381 7.58902 11.6523 7.84291C11.8225 7.94776 12.0025 8.03475 12.1766 8.13649C12.2512 8.19306 12.3301 8.24409 12.4126 8.28918C12.2199 8.35942 12.3321 8.11489 12.3673 8.26133C12.4318 8.33406 12.4367 8.33521 12.3673 8.26133C12.298 8.18745 12.3164 8.18777 12.3464 8.23921C12.4182 8.37517 12.2802 8.01693 12.3334 8.18172C12.3866 8.3465 12.3263 7.99761 12.3286 8.16042C12.3309 8.32323 12.375 8.00007 12.3286 8.16042L12.2971 8.29506C12.2314 8.5627 12.1613 8.83132 12.1026 9.09961C11.9647 9.64598 11.8909 10.2054 11.8826 10.7669C11.9024 12.0243 12.3921 13.2833 13.5221 13.9775C13.7725 14.1276 14.0738 14.1753 14.3619 14.1104C14.6499 14.0455 14.9017 13.8732 15.0635 13.6303C15.2182 13.3834 15.2694 13.0882 15.2061 12.8072C15.1428 12.5262 14.97 12.2815 14.7244 12.1248L14.7167 12.131Z" fill="#FA7268"></path></svg>