<svg xmlns="http://www.w3.org/2000/svg" width="24" height="18" viewBox="0 0 24 18" fill="none"><path d="M2.77167 2.00769L4.74743 8.53189C4.8378 8.84123 5.04415 9.10023 5.32285 9.25409C5.60154 9.40795 5.93071 9.44461 6.24064 9.35626C6.54752 9.25758 6.80713 9.04283 6.9648 8.75724C7.12246 8.47166 7.16587 8.13755 7.08587 7.82528L5.11218 1.30221C5.02153 0.992537 4.81488 0.733298 4.53584 0.579244C4.2568 0.425191 3.92726 0.388415 3.6169 0.476701C3.31002 0.575381 3.05041 0.790139 2.89275 1.07572C2.73508 1.36131 2.69167 1.69542 2.77167 2.00769Z" fill="#F39E3D"></path><path d="M14.7418 2.57676L11.5976 8.27196C11.4423 8.55976 11.4033 8.89542 11.489 9.20687C11.5747 9.51832 11.7782 9.78072 12.0559 9.9377C12.3371 10.0871 12.6669 10.1185 12.9756 10.0252C13.2843 9.93194 13.5475 9.72132 13.7097 9.43796L16.8539 3.74276C17.0085 3.45483 17.0472 3.11938 16.9615 2.80811C16.8759 2.49684 16.6728 2.23445 16.3956 2.07702C16.1143 1.92825 15.7847 1.8972 15.4762 1.99042C15.1677 2.08364 14.9044 2.29386 14.7418 2.57676Z" fill="#F39E3D"></path><path d="M21.9931 10.9849L17.3302 13.0218C17.0248 13.1238 16.7643 13.3347 16.5978 13.6148C16.4418 13.9034 16.4014 14.2397 16.485 14.5528C16.5712 14.8645 16.7765 15.1262 17.056 15.2806C17.1938 15.3597 17.3467 15.409 17.5053 15.4257C17.6638 15.4423 17.8247 15.4257 17.9782 15.3771L22.6411 13.3402C22.9456 13.2367 23.205 13.0256 23.3715 12.7461C23.5286 12.4583 23.5698 12.1222 23.4863 11.8092C23.4436 11.6545 23.3709 11.5105 23.2726 11.3854C23.1742 11.2604 23.0521 11.1567 22.9132 11.0803C22.7759 11.001 22.6233 10.9516 22.465 10.9352C22.3067 10.9187 22.1461 10.9357 21.9931 10.9849Z" fill="#F39E3D"></path></svg>