<svg xmlns="http://www.w3.org/2000/svg" width="502" height="443" viewBox="0 0 502 443" fill="none"><path d="M454.434 200.385C399.867 159.314 327.423 139.886 255.135 146.933C261.055 113.946 273.919 82.6092 292.873 54.9997C298.418 47.0772 304.518 39.5595 311.128 32.5033C314.366 28.7323 316.02 23.8531 315.746 18.884C315.473 13.915 313.292 9.24041 309.658 5.83575C306.025 2.43107 301.221 0.559685 296.248 0.612172C291.275 0.664659 286.518 2.63659 282.97 6.11703C275.145 14.498 267.918 23.4185 261.342 32.8132C236.426 68.828 220.492 110.3 214.87 153.767C196.525 158.167 178.671 164.398 161.576 172.366C104.038 199.762 51.432 236.482 5.87883 281.044C2.51913 284.671 0.682686 289.453 0.749282 294.402C0.815874 299.352 2.78043 304.09 6.23666 307.638C9.69288 311.185 14.3766 313.271 19.3199 313.464C24.2632 313.657 29.0884 311.942 32.7977 308.675C75.2648 267.102 124.315 232.845 177.969 207.287C189.081 202.093 200.576 197.76 212.352 194.324C212.349 241.048 224.855 286.942 248.572 327.234C259.205 344.92 288.805 389.172 333.826 418.275C378.165 446.97 422.341 450.68 461.591 428.972L464.399 427.39C468.376 425.083 472.225 422.563 475.93 419.841C489.241 410.256 500.229 397.802 508.088 383.397C515.946 368.993 520.474 353.003 521.339 336.603C524.34 287.452 497.388 232.731 454.434 200.385ZM445.237 393.974L442.971 395.252C416.598 409.812 386.969 406.639 354.852 385.937C328.328 368.749 300.886 339.298 281.717 307.371C260.136 270.709 249.486 228.65 251.025 186.167C269.953 183.781 289.086 183.444 308.094 185.16C352.603 188.722 395.256 204.649 431.247 231.147C463.672 255.791 485.081 298.004 482.93 334.172C481.481 359.764 468.49 380.506 445.191 393.912L445.237 393.974Z" fill="#FFF0ED"></path></svg>