<svg xmlns="http://www.w3.org/2000/svg" width="26" height="18" viewBox="0 0 26 18" fill="none"><path d="M0 1C0 0.447715 0.448287 0 1.00057 0C5.13133 0 8.53225 0 11.8581 0C12.2394 0 12.6197 0 13 0C13.3803 0 13.7606 0 14.1419 0C17.4677 0 20.8687 0 24.9994 0C25.5517 0 26 0.447715 26 1C26 1.55228 25.5523 2 25 2H1C0.447716 2 0 1.55228 0 1Z" fill="#FA7268"></path><path d="M0 9C0 8.44772 0.448287 8 1.00057 8C5.13133 8 8.53225 8 11.8581 8C12.2394 8 12.6197 8 13 8C13.3803 8 13.7606 8 14.1419 8C17.4677 8 20.8687 8 24.9994 8C25.5517 8 26 8.44772 26 9C26 9.55228 25.5523 10 25 10H1C0.447716 10 0 9.55228 0 9Z" fill="#FA7268"></path><path d="M0 17C0 16.4477 0.448287 16 1.00057 16C5.13133 16 8.53225 16 11.8581 16C12.2394 16 12.6197 16 13 16C13.3803 16 13.7606 16 14.1419 16C17.4677 16 20.8687 16 24.9994 16C25.5517 16 26 16.4477 26 17C26 17.5523 25.5523 18 25 18H1C0.447716 18 0 17.5523 0 17Z" fill="#FA7268"></path></svg>