<svg xmlns="http://www.w3.org/2000/svg" width="20" height="20" viewBox="0 0 20 20" fill="none"><path d="M0.707107 19.0919C0.316583 18.7013 0.316987 18.0678 0.707511 17.6773C3.6284 14.7564 6.03321 12.3516 8.38495 9.99982C8.65456 9.73021 8.92347 9.46129 9.19239 9.19238C9.4613 8.92346 9.73022 8.65455 9.99983 8.38494C12.3516 6.0332 14.7564 3.62839 17.6773 0.707501C18.0678 0.316977 18.7014 0.316572 19.0919 0.707096C19.4824 1.09762 19.4824 1.73079 19.0919 2.12131L2.12132 19.0919C1.7308 19.4824 1.09763 19.4824 0.707107 19.0919Z" fill="#FA7268"></path><path d="M0.706956 0.707229C1.09748 0.316705 1.73105 0.317109 2.12157 0.707633C5.04246 3.62852 7.44727 6.03333 9.79901 8.38507C10.0686 8.65468 10.3375 8.9236 10.6065 9.19251C10.8754 9.46142 11.1443 9.73034 11.4139 9.99995C13.7656 12.3517 16.1704 14.7565 19.0913 17.6774C19.4819 18.0679 19.4823 18.7015 19.0917 19.092C18.7012 19.4825 18.068 19.4825 17.6775 19.092L0.706956 2.12144C0.316432 1.73092 0.316431 1.09775 0.706956 0.707229Z" fill="#FA7268"></path></svg>