<svg xmlns="http://www.w3.org/2000/svg" width="467" height="327" viewBox="0 0 467 327" fill="none"><path d="M463.546 242.54C458.726 215.08 449.232 192.819 435.357 176.343C427.657 167.051 418.12 159.458 407.348 154.045C396.577 148.632 384.804 145.515 372.771 144.891C327.055 141.559 302.335 178.173 282.507 207.574C277.224 215.745 271.495 223.617 265.345 231.153C253.989 244.371 238.799 251.108 224.705 249.168C212.144 247.41 201.664 238.842 195.201 224.965C187.168 207.83 193.704 187.437 200.605 165.835C201.226 163.821 201.883 161.807 202.504 159.793C204.001 155.07 206.484 148.626 209.405 141.12C216.708 122.813 225.508 99.7465 229.087 77.4487C234.053 46.2171 226.932 23.5898 207.872 10.2258C189.432 -2.73554 166.172 -3.39462 142.474 8.35841C125.02 17.3975 109.8 30.232 97.9265 45.9242C88.8656 58.6616 80.8779 72.1332 74.0461 86.1994C67.5037 100.207 59.4335 113.444 49.983 125.669C21.5017 159.646 -15.7431 178.063 -51.8559 176.233C-54.3379 176.013 -56.8387 176.297 -59.2084 177.069C-61.5781 177.841 -63.768 179.085 -65.6468 180.726C-67.5257 182.367 -69.0548 184.372 -70.1426 186.62C-71.2304 188.868 -71.8545 191.312 -71.9774 193.808C-72.1004 196.303 -71.7197 198.798 -70.8582 201.142C-69.9967 203.486 -68.672 205.632 -66.9637 207.451C-65.2553 209.27 -63.1984 210.724 -60.9161 211.727C-58.6338 212.729 -56.1732 213.26 -53.6816 213.286C-5.81113 215.702 42.3149 192.452 78.2817 149.541C90.4775 134.896 98.8028 118.859 106.873 103.298C112.772 91.0506 119.66 79.3074 127.467 68.1853C135.829 57.1277 146.496 48.0313 158.723 41.5303C162.995 39.4067 175.885 33.0358 186.584 40.505C203.965 52.734 184.32 103.298 174.863 127.573C171.686 135.701 168.984 142.694 167.121 148.626L165.332 154.264C157.409 179.162 147.513 210.101 161.681 240.454C173.475 265.717 194.544 282.157 219.666 285.635C222.933 286.086 226.227 286.319 229.525 286.33C241.771 286.016 253.807 283.068 264.818 277.686C275.83 272.305 285.561 264.614 293.352 255.135C300.451 246.505 307.047 237.471 313.106 228.078C332.788 198.787 347.393 179.967 370.105 181.615C377.207 181.917 384.168 183.702 390.543 186.854C396.918 190.006 402.568 194.457 407.131 199.922C428.419 225.222 432.399 271.685 429.04 306.761C428.582 311.654 430.078 316.529 433.199 320.317C436.32 324.106 440.812 326.499 445.69 326.972C446.286 327.009 446.884 327.009 447.48 326.972C452.067 326.988 456.493 325.272 459.876 322.165C463.259 319.057 465.352 314.787 465.737 310.203C467.974 287.65 467.237 264.9 463.546 242.54Z" fill="#FFF0ED"></path></svg>