<svg xmlns="http://www.w3.org/2000/svg" width="25" height="12" viewBox="0 0 25 12" fill="none"><path d="M13.6189 9.41142C13.7099 9.43789 13.801 9.44768 13.8947 9.46818C13.9884 9.48867 13.8112 9.45224 13.8061 9.46909C13.8453 9.46256 13.8852 9.45964 13.9252 9.46033L14.0449 9.44465C14.0343 9.4136 13.8391 9.51021 14.0033 9.44991C14.0482 9.43177 14.2966 9.34226 14.1775 9.38931C14.0584 9.43636 14.2892 9.31502 14.3295 9.28525C14.4112 9.22862 14.4943 9.11996 14.3779 9.25915C14.4503 9.17438 14.5325 9.08927 14.599 9.00665C14.63 8.97031 14.6578 8.93015 14.6867 8.8929C14.8156 8.72583 14.6519 8.97057 14.7046 8.85307C15.1173 8.0478 15.3456 6.98752 16.1879 6.49697C17.0302 6.00641 18.1033 6.13142 19.0705 6.2687C19.251 6.29226 19.4306 6.31782 19.6129 6.3374L19.8609 6.35776C19.9882 6.37422 19.7809 6.35057 19.7773 6.35853C19.8452 6.35426 19.9133 6.35367 19.9814 6.35678C20.0629 6.35511 20.1443 6.34854 20.2326 6.34272C20.321 6.3369 20.3383 6.32555 20.3919 6.32086C20.5206 6.30685 20.3096 6.32942 20.3142 6.34105C20.3944 6.32117 20.473 6.29566 20.5493 6.26471C20.6002 6.24584 20.65 6.22424 20.6984 6.20001C20.6984 6.20001 20.5091 6.31606 20.6623 6.21491C20.7528 6.15505 20.8384 6.09535 20.9237 6.03076C20.9449 6.01633 21.0581 5.93317 20.9422 6.02231C20.8263 6.11145 20.953 5.99842 20.9838 5.97878C21.1258 5.83087 21.2565 5.67281 21.3748 5.50585C21.4073 5.46064 21.4378 5.4145 21.4703 5.36929C21.5789 5.21464 21.4543 5.40513 21.4534 5.40712C21.5187 5.31498 21.5757 5.21727 21.6236 5.11508C21.7313 4.92416 21.8309 4.72958 21.9304 4.535C22.186 4.02528 22.8394 3.71553 23.3967 3.99666C23.919 4.25734 24.2441 4.90318 23.9695 5.44983C23.5427 6.29187 23.0752 7.09892 22.3578 7.73161C21.5794 8.41829 20.5701 8.60421 19.5477 8.53545C19.143 8.50938 18.7418 8.43708 18.3388 8.38544C18.2667 8.377 17.7906 8.28064 17.7513 8.33C17.7513 8.33 18.025 8.32601 17.786 8.34556C17.7442 8.34594 17.7024 8.34632 17.6617 8.34961C17.621 8.3529 17.5435 8.35638 17.485 8.36123C17.4265 8.36608 17.2782 8.40723 17.4028 8.36981C17.5754 8.31808 17.2453 8.42596 17.4082 8.35787C17.5176 8.31604 17.4081 8.35786 17.3814 8.37933C17.5584 8.18125 17.3662 8.41318 17.3278 8.46055C17.2292 8.5766 17.4055 8.28729 17.3421 8.42869C17.3272 8.46982 17.3093 8.50976 17.2884 8.54818C17.2411 8.65373 17.1928 8.76127 17.1455 8.86682C16.9525 9.37803 16.6984 9.86389 16.3883 10.3142C15.7278 11.2404 14.4441 11.9181 13.2735 11.5843C12.9799 11.5265 12.7158 11.3656 12.5311 11.1316C12.3633 10.8955 12.2921 10.6069 12.3322 10.3246C12.4339 9.80323 12.9919 9.24735 13.5933 9.41911L13.6189 9.41142Z" fill="#FA7268"></path><path d="M13.1918 2.28024L12.9401 2.83398L12.8166 3.11088L12.8569 3.02183L12.7863 3.18074C12.6299 3.5388 12.4782 3.90022 12.3312 4.26499C12.0322 5.00578 11.7529 5.75352 11.4933 6.50821C11.2859 7.10677 10.6335 7.54646 10.0062 7.32248C9.41917 7.11405 8.98604 6.44937 9.20877 5.80737C9.77642 4.17201 10.4292 2.56854 11.1642 1.00387C11.3282 0.732844 11.5899 0.538113 11.893 0.461395C12.2052 0.384383 12.5344 0.436744 12.8086 0.606981C13.3911 1.00753 13.4998 1.66458 13.1989 2.28041L13.1918 2.28024Z" fill="#FA7268"></path><path d="M4.66903 6.37525C4.35934 6.4862 4.03087 6.53433 3.70351 6.51675C3.37614 6.49916 3.05672 6.41621 2.76447 6.27293C2.26419 6.01489 1.82197 5.66101 1.46339 5.23169C0.807711 4.46631 0.313043 3.35094 0.584579 2.32924C0.725948 1.71461 1.10154 1.17433 1.63321 0.820898C2.19706 0.460604 2.86583 0.298364 3.52975 0.360802C4.68833 0.459032 5.69615 1.40965 6.00589 2.48867C6.20113 3.11398 6.22659 3.78092 6.07973 4.4234C5.91449 5.07815 5.6311 5.69967 5.24321 6.25801C5.14237 6.38388 5.01762 6.48925 4.87611 6.56808C4.73459 6.64692 4.57906 6.69769 4.41844 6.71748C4.10313 6.75201 3.78791 6.66705 3.53679 6.47986C3.29096 6.28196 3.13294 5.99742 3.09545 5.6851C3.05795 5.37279 3.14388 5.05659 3.3354 4.802C3.39083 4.71805 3.50849 4.46258 3.3354 4.802C3.3714 4.72842 3.41911 4.65786 3.45737 4.58337C3.52743 4.44348 3.58971 4.30004 3.64401 4.15367C3.68153 4.0512 3.703 3.83688 3.65378 4.17802C3.6664 4.0984 3.69435 4.01777 3.70922 3.93724C3.74026 3.77572 3.75789 3.61214 3.76196 3.44813L3.75571 3.75918C3.75584 3.55949 3.7332 3.36071 3.68828 3.16658L3.76584 3.47743C3.71468 3.28783 3.64132 3.10501 3.54725 2.93262L3.70606 3.21087C3.61097 3.04244 3.49406 2.88712 3.35819 2.74879L3.57681 2.96704C3.50769 2.89972 3.43365 2.83748 3.35529 2.78081C3.31535 2.75312 3.15642 2.65749 3.34819 2.7631C3.53996 2.86871 3.35533 2.7808 3.32572 2.75926L3.22454 2.72271C3.03844 2.65082 3.45851 2.77025 3.34237 2.75514C3.22623 2.74003 3.14932 2.72462 3.04843 2.72139L3.36238 2.72655C3.21886 2.72549 3.07548 2.74074 2.93506 2.77202L3.24902 2.69233C3.11196 2.7306 2.97944 2.78376 2.85394 2.85084L3.13823 2.69051C3.03169 2.75275 2.9318 2.82556 2.84013 2.9078L3.0666 2.68838C3.01631 2.73941 2.97545 2.79437 2.9283 2.84671C2.81362 2.97243 3.0187 2.71274 3.00112 2.71465C2.98354 2.71656 2.94782 2.82345 2.94234 2.83593C2.84966 3.05567 2.99117 2.55924 2.95019 2.7968C2.93671 2.87405 2.92861 2.95203 2.92592 3.03023L2.93306 2.7214C2.93295 2.88178 2.95294 3.0413 2.99256 3.19633L2.91505 2.88546C2.97373 3.10027 3.05689 3.30754 3.16296 3.50333L3.00637 3.22421C3.16579 3.4985 3.35977 3.7515 3.58374 3.97729L3.36424 3.75684C3.44534 3.83486 3.52872 3.91195 3.61708 3.98192C3.65968 4.01625 3.70766 4.051 3.75164 4.08221C3.85217 4.14986 3.96743 4.16275 3.67661 4.04546C3.70808 4.05854 3.94381 4.19537 3.97767 4.18178C4.01153 4.16819 3.63474 4.12396 3.85944 4.14179C3.91976 4.14844 3.97871 4.15822 4.03952 4.15954L3.72645 4.15659C3.81063 4.15512 3.89457 4.14555 3.97709 4.12801L3.66082 4.20863C3.69552 4.19725 3.72945 4.18363 3.7624 4.16787C4.36181 3.96337 5.11377 4.19133 5.33547 4.82229C5.53852 5.40675 5.29415 6.16301 4.65096 6.3825L4.66903 6.37525Z" fill="#FA7268"></path></svg>