<svg xmlns="http://www.w3.org/2000/svg" width="199" height="132" viewBox="0 0 199 132" fill="none"><path d="M56.7482 35.1244C58.697 36.5503 60.7621 37.9178 62.8854 39.1975C64.7172 40.2847 66.4095 41.5937 67.9245 43.0952C67.0156 44.0386 66.0775 45.0623 65.1322 46.1592C64.0427 47.4165 63.0577 48.7617 62.1873 50.1812C61.3129 51.5855 60.6098 53.0906 60.0931 54.6639C59.5814 56.2568 59.3501 57.9272 59.4096 59.6C59.3999 60.8215 59.6514 62.0309 60.1469 63.1462C60.6425 64.2615 61.3705 65.2567 62.2818 66.0644C64.0381 67.5399 66.2695 68.32 68.5571 68.2583H68.9716C71.0472 68.2049 73.0708 67.5938 74.8324 66.4886C76.5475 65.3993 78.0547 64.0099 79.2826 62.3861C80.5345 60.7296 81.5005 58.8731 82.1403 56.8943C82.7868 54.9738 83.0945 52.9543 83.0492 50.9271C83.0076 49.8975 82.9008 48.8717 82.7292 47.8558C82.5719 46.9567 82.3284 46.0751 82.0021 45.2232C83.4928 43.8996 85.2452 42.4005 87.1285 41.033L88.9173 39.7606L89.4263 39.4023L89.2736 42.2323C88.8446 50.0423 88.7646 58.0058 89.0191 65.9036C89.0191 66.7226 89.1064 67.4831 89.1863 68.1705C89.2542 68.8802 89.4751 69.5664 89.8335 70.1815C90.2056 70.797 90.7458 71.2919 91.3896 71.6075C92.1117 71.9398 92.9011 72.0975 93.6947 72.0682H93.9855C94.5896 72.0496 95.184 71.9107 95.7345 71.6597C96.2849 71.4086 96.7803 71.0504 97.1923 70.6056C97.6303 70.1671 97.9724 69.6413 98.1965 69.062C98.4207 68.4827 98.5219 67.8627 98.4939 67.2418C98.4939 64.9529 98.443 62.6421 98.3993 60.302C98.3557 57.962 98.3993 55.6585 98.4648 53.3915C98.6781 47.673 98.8914 42.0373 99.1047 36.4845C99.3155 31.0585 99.5919 25.3985 99.9191 19.6653C99.9389 18.378 99.4917 17.1275 98.6611 16.1479C98.2732 15.637 97.7688 15.2274 97.1904 14.9538C96.612 14.6802 95.9767 14.5505 95.338 14.5756C94.1872 14.6525 93.0878 15.084 92.1895 15.8115C91.6859 16.1322 91.2664 16.57 90.9665 17.088C90.6666 17.6061 90.4949 18.189 90.4661 18.7878C90.3207 21.7128 90.1777 24.6379 90.0371 27.563C88.6628 28.4332 87.2376 29.3912 85.6742 30.4881C82.6129 32.6819 79.6316 35.0878 76.7521 37.4059L76.6939 37.4498C76.5583 37.5686 76.3999 37.6582 76.2286 37.7131C74.8299 36.5453 73.3607 35.4658 71.8293 34.4808C69.8733 33.1865 67.9027 31.7898 65.9685 30.3199C64.1678 28.984 62.4666 27.5176 60.8784 25.9323C59.5259 24.5575 58.8133 23.2997 58.7842 22.2028C58.8043 20.9921 59.162 19.8113 59.8168 18.7951C60.6189 17.4506 61.5972 16.2208 62.7254 15.1387C63.859 14.0175 65.1209 13.0356 66.4847 12.2136C67.5517 11.5214 68.7742 11.1091 70.0405 11.0143C70.1792 10.9978 70.3198 11.0115 70.4528 11.0544C70.5858 11.0973 70.708 11.1684 70.8113 11.263C71.0533 11.5186 71.2391 11.8226 71.3566 12.1551C71.4979 12.5439 71.5884 12.9495 71.6257 13.3617C71.6693 13.8371 71.6911 14.2393 71.7057 14.5683C71.7064 15.8702 72.091 17.1427 72.8109 18.2247C73.2226 18.7672 73.7676 19.1927 74.3923 19.4594C75.017 19.7261 75.6999 19.8248 76.374 19.7457C78.25 19.6799 79.5444 18.9267 80.2279 17.5007C80.8571 16.1794 81.1542 14.723 81.0932 13.2593C81.0442 11.7368 80.7394 10.2335 80.1915 8.81322C79.6546 7.42755 78.8683 6.15333 77.8719 5.05448C76.8708 3.97349 75.6642 3.10563 74.3234 2.50235C72.8791 1.86876 71.309 1.57849 69.7351 1.65407C67.1881 1.77828 64.7021 2.4808 62.4636 3.70894C60.0358 4.98918 57.8126 6.6284 55.8684 8.57189C53.9315 10.494 52.3136 12.716 51.0764 15.1533C49.8884 17.4056 49.288 19.9242 49.3313 22.4734C49.3293 25.1634 50.1353 27.7912 51.6436 30.0128C53.0657 31.9774 54.7886 33.7027 56.7482 35.1244ZM69.1098 57.5159C69.5748 56.085 70.3468 54.7744 71.3712 53.6767C72.0983 52.8431 72.8255 52.1118 73.4581 51.4829C73.4217 51.7535 73.3781 52.0387 73.32 52.3312C73.1636 53.1356 72.9198 53.9204 72.5928 54.6712C72.2658 55.4058 71.8559 56.1002 71.3712 56.7407C70.9295 57.3168 70.3488 57.7699 69.6842 58.057C69.3788 58.2179 69.2843 58.1301 69.2043 58.057C69.1243 57.9839 68.9716 57.823 69.0807 57.5159H69.1098Z" fill="#1A00DE"></path><path d="M94.4124 11.124H94.6378C95.4503 11.1227 96.2454 10.8867 96.9283 10.4439C97.5249 10.043 98.0223 9.51021 98.3827 8.88628C98.7423 8.26487 98.9885 7.58383 99.1098 6.87528C99.2368 6.16863 99.288 5.4503 99.2625 4.73266C99.245 3.52057 98.8195 2.35024 98.0554 1.41269C97.6747 0.93792 97.1858 0.562435 96.6301 0.318029C96.0744 0.0736229 95.4683 -0.0325019 94.8632 0.00864789C94.0622 -0.020034 93.2678 0.163482 92.5595 0.54081C91.8512 0.918138 91.2539 1.47603 90.8275 2.15859C90.038 3.46384 89.6532 4.97613 89.7223 6.50234C89.7186 7.13379 89.8387 7.75977 90.0757 8.3445C90.3128 8.92923 90.6622 9.46122 91.1038 9.91006C91.5475 10.3233 92.0686 10.6434 92.6366 10.8518C93.2047 11.0603 93.8084 11.1528 94.4124 11.124Z" fill="#1A00DE"></path><path d="M45.4261 7.11661C43.2447 5.93195 40.4015 6.44384 39.0417 8.25739C37.682 10.0709 37.7038 12.6962 37.7547 14.9631C37.7547 15.4312 37.7547 15.8919 37.7547 16.3306L37.5365 39.2998L23.568 13.4129C22.6809 11.7602 21.6702 9.89544 20.0341 8.62303C19.2927 7.99898 18.393 7.59516 17.4361 7.45694C16.4791 7.31872 15.5028 7.45157 14.6168 7.84057C13.924 8.20914 13.3529 8.7726 12.9733 9.46216C12.5937 10.1517 12.4219 10.9375 12.479 11.7236L12.6462 24.3819C12.6462 26.8317 12.6971 29.2814 12.7262 31.6946C12.7698 36.521 12.8207 41.5156 12.9298 46.4297C12.9734 48.1409 13.005 49.8472 13.0243 51.5486V52.9381C13.068 55.556 13.1261 58.3348 13.3443 61.0698C13.3443 61.3257 13.3879 61.5963 13.4025 61.8815C13.4363 62.9659 13.58 64.044 13.8315 65.0991C13.9862 65.6754 14.2563 66.214 14.6251 66.6817C14.9939 67.1495 15.4538 67.5366 15.9766 67.8194C16.6835 68.1986 17.4732 68.3946 18.2744 68.3898C19.4839 68.3958 20.657 67.9733 21.5877 67.1964C22.5184 66.4195 23.1474 65.3378 23.3644 64.1411C23.6807 62.2801 23.6807 60.3787 23.3644 58.5177C23.299 57.9546 23.2408 57.3988 23.1972 56.8504C22.9426 53.4134 22.7609 50.2689 22.5718 46.9636L21.9174 35.5923C21.9174 35.468 21.9174 35.3217 21.9174 35.1535C22.4652 36.2748 23.0057 37.3937 23.5389 38.5101L26.2367 44.075C28.9925 49.7278 31.8357 55.578 34.3516 61.4281C35.3987 63.8706 36.5331 66.1741 38.7582 67.4172C40.4161 68.3459 43.121 68.7189 45.0407 67.3368C46.9604 65.9547 47.0477 63.11 47.0258 61.4501C47.0258 60.8065 47.0258 60.1703 46.9895 59.5268C46.9531 57.4719 46.9095 55.3439 46.9895 53.2598C47.0331 51.6218 47.0622 49.991 47.084 48.353C47.1058 46.7149 47.1349 45.2597 47.1713 43.7094L47.8984 15.3507C47.8984 15.0875 47.8984 14.8169 47.8984 14.539C48.0366 12.0819 48.1747 8.62303 45.4261 7.11661Z" fill="#1A00DE"></path><path d="M106.752 67.9656C108.965 68.5171 111.244 68.751 113.522 68.6603H114.46C118.98 68.7553 123.423 67.4814 127.214 65.004C129.604 63.3544 131.649 61.2502 133.235 58.8101C139.086 60.7871 145.38 61.0258 151.363 59.4975C151.588 59.7973 151.821 60.0898 152.053 60.375C157.478 67.0369 165.869 71.4757 176.326 73.2308C176.607 73.2745 176.892 73.2965 177.176 73.2966C178.477 73.3028 179.731 72.8153 180.69 71.9317C181.648 71.048 182.24 69.8332 182.346 68.53C182.453 67.2268 182.066 65.9312 181.264 64.902C180.462 63.8728 179.304 63.1858 178.02 62.9783C173.068 62.1447 166.247 60.141 161.405 55.2927C167.7 51.4849 172.645 45.7826 175.54 38.9927C177.962 33.1864 178.493 27.4678 177.082 22.4659C175.22 15.8333 169.81 10.8533 163.55 10.0343C158.212 9.36887 152.57 11.804 148.803 16.3964C146.011 19.8041 144.229 24.2795 143.509 29.6909C142.626 36.5285 143.489 43.4797 146.018 49.8886C143.119 50.2285 140.181 49.9798 137.38 49.1573C138.363 45.2096 138.919 41.1666 139.037 37.0987C139.532 25.2009 136.565 16.4768 130.224 11.1605C129.186 10.2898 128.068 9.51865 126.887 8.85698C123.403 6.96443 119.51 5.96006 115.551 5.93189H115.311C112.555 5.8807 108.388 5.80758 106.585 8.30852C105.677 9.74203 105.211 11.4138 105.247 13.113C105.189 14.5755 105.135 16.0381 105.087 17.5006C105.029 19.2483 104.97 20.9961 104.898 22.7438L104.127 41.5302C104.018 44.0677 103.858 46.6491 103.705 49.1866C103.429 53.5742 103.153 58.0642 103.153 62.4884C103.131 65.3842 104.381 67.2782 106.752 67.9656ZM115.434 19.1167C115.434 17.9028 115.434 17.0253 115.66 16.784C115.908 16.6383 116.196 16.5791 116.481 16.6158C119.042 16.7494 121.486 17.7374 123.426 19.4238C127.061 22.5025 128.719 28.3015 128.37 36.6526C127.97 46.4224 125.505 53.1501 121.251 56.0971C120.033 56.9319 118.665 57.5206 117.223 57.8302L116.983 57.8887C116.423 58.0203 114.932 58.3713 114.54 57.9472C114.147 57.5231 114.103 56.7406 114.162 55.1976C114.162 54.7832 114.176 54.3225 114.205 53.8155C114.205 52.2214 114.314 50.5906 114.402 49.0111C114.445 48.1482 114.489 47.2853 114.525 46.4151C114.661 43.1877 114.794 39.9628 114.925 36.7403L115.143 31.4167C115.289 27.9212 115.318 26.5099 115.405 20.8791C115.441 20.2136 115.441 19.6286 115.434 19.1167ZM160.081 17.6542C160.462 17.5751 160.849 17.5286 161.237 17.5152C162.434 17.5056 163.619 17.763 164.705 18.2688C165.791 18.7746 166.753 19.5162 167.52 20.4403C169.035 22.3226 169.907 24.6458 170.007 27.0656C170.093 29.4747 169.707 31.8773 168.872 34.137C166.579 40.6601 161.898 46.058 155.784 49.2304C155.407 49.4649 154.969 49.582 154.526 49.5668C153.74 49.4279 153.37 48.5431 153.137 47.7752C151.741 43.5221 150.963 39.0889 150.825 34.6123C150.723 28.3234 152.817 19.1094 160.081 17.6469V17.6542Z" fill="#1A00DE"></path><path d="M198.229 118.131C197.666 106.279 197.109 94.428 196.556 82.5766C196.44 80.0756 196.287 77.4576 194.964 75.337C193.64 73.2163 190.717 71.8927 188.579 73.1431C186.231 74.5472 186.209 77.911 186.485 80.6533L188.754 103.506C185.344 95.0593 181.89 86.5327 176.763 79.0006C175.643 77.348 174.364 75.6807 172.56 74.8324C165.027 71.2638 163.835 85.0702 163.471 89.4139C162.911 96.4707 162.7 103.549 162.795 110.621C162.761 114.945 163.104 119.264 163.82 123.528C164.104 125.041 164.547 126.679 165.812 127.564C167.819 128.976 170.786 127.564 171.899 125.371C173.011 123.177 172.8 120.581 172.626 118.124C171.945 108.816 171.991 99.468 172.764 90.1671C178.508 102.716 180.675 114.299 187.256 125.078C188.339 126.855 189.787 128.69 191.83 129.049C192.251 129.115 192.681 129.115 193.102 129.049C194.077 128.839 194.986 128.39 195.747 127.742C196.508 127.094 197.098 126.267 197.465 125.334C198.44 123.104 198.338 120.566 198.229 118.131Z" fill="#1A00DE"></path><path d="M42.4712 84.7922C40.7842 85.2675 35.8468 86.0281 33.28 83.8562C31.6148 82.4448 30.9749 79.7538 31.3822 75.8122C31.4266 75.3801 31.3859 74.9434 31.2625 74.527C31.1391 74.1107 30.9353 73.7229 30.6628 73.3857C30.3904 73.0486 30.0546 72.7687 29.6746 72.5621C29.2946 72.3554 28.8778 72.2261 28.4481 72.1815C28.0184 72.1368 27.5841 72.1777 27.1702 72.3018C26.7562 72.4259 26.3705 72.6308 26.0353 72.9048C25.7 73.1788 25.4217 73.5166 25.2163 73.8987C25.0108 74.2809 24.8822 74.7 24.8378 75.1321C24.1906 81.3625 25.6159 85.9915 29.0625 88.8946C31.8766 91.2566 35.396 91.8928 38.3482 91.8928C40.3426 91.8885 42.3278 91.6205 44.2527 91.0958C45.0527 90.8247 45.718 90.2538 46.11 89.5018C46.5021 88.7499 46.5906 87.8749 46.3573 87.059C46.1241 86.2431 45.5869 85.549 44.8576 85.1213C44.1283 84.6937 43.2631 84.5653 42.4421 84.763L42.4712 84.7922Z" fill="#F06B5D"></path><path d="M183.669 45.0843C184.003 45.082 184.334 45.0176 184.644 44.8941C186.593 44.1044 188.934 42.8978 189.85 40.5065C190.766 38.1153 189.807 35.5777 188.745 33.4351C188.694 33.3327 188.658 33.245 188.629 33.1719C189.12 32.9153 189.625 32.6859 190.141 32.4845C191.44 32.0471 192.645 31.3646 193.69 30.4735C194.243 29.979 194.671 29.3587 194.938 28.6642C195.205 27.9696 195.303 27.221 195.224 26.4807C194.882 23.6434 192.053 21.669 189.334 20.1114C189.036 19.8948 188.695 19.7438 188.335 19.668C187.975 19.5922 187.603 19.5934 187.244 19.6715C186.884 19.7496 186.545 19.9028 186.248 20.1212C185.951 20.3397 185.703 20.6184 185.52 20.9394C185.337 21.2604 185.223 21.6165 185.186 21.9846C185.149 22.3527 185.189 22.7245 185.304 23.076C185.419 23.4275 185.606 23.7508 185.853 24.0249C186.1 24.299 186.401 24.5178 186.738 24.6672C187.857 25.2454 188.885 25.9845 189.792 26.861C189.271 27.1414 188.732 27.3857 188.178 27.5923C186.498 28.2797 184.418 29.1279 183.604 31.2486C183.358 31.9876 183.271 32.7707 183.349 33.546C183.426 34.3214 183.667 35.0712 184.055 35.7459C185.116 37.9397 184.986 38.4955 184.956 38.5979C184.927 38.7003 184.68 39.1829 182.695 39.9873C182.126 40.2123 181.654 40.6302 181.36 41.1686C181.065 41.7071 180.967 42.3321 181.083 42.9355C181.199 43.5389 181.521 44.0826 181.993 44.4723C182.465 44.8621 183.058 45.0734 183.669 45.0696V45.0843Z" fill="#F06B5D"></path><path d="M153.092 47.7826C153.325 48.5139 153.696 49.4353 154.481 49.5742C154.924 49.5894 155.362 49.4723 155.739 49.2378C161.853 46.0653 166.534 40.6674 168.828 34.1444C169.663 31.8847 170.048 29.4821 169.962 27.073C169.863 24.6532 168.991 22.33 167.475 20.4477C166.708 19.5236 165.747 18.7819 164.661 18.2762C163.574 17.7704 162.39 17.513 161.193 17.5226C160.804 17.536 160.418 17.5824 160.037 17.6615C152.765 19.1241 150.678 28.3673 150.737 34.6563C150.892 39.1227 151.685 43.5434 153.092 47.7826ZM154.765 34.1298C154.765 30.042 155.696 24.2722 159.622 22.0784C160.247 21.7204 160.954 21.5314 161.673 21.53C162.056 21.5277 162.435 21.5972 162.793 21.7347C163.526 22.0576 164.152 22.5856 164.596 23.2558C165.621 24.7799 166.131 26.5951 166.05 28.4332C165.955 30.2619 165.531 32.0581 164.8 33.7349C163.941 35.8391 162.788 37.8091 161.375 39.585C160.124 41.1573 158.946 42.7953 157.179 43.8264C156.794 44.0531 156.452 44.1847 156.168 43.7606C155.922 43.3048 155.755 42.8102 155.674 42.2981C155.072 39.6174 154.767 36.8779 154.765 34.1298Z" fill="#F06B5D"></path><path d="M9.51838 14.7145C9.51838 12.3233 9.51839 9.05449 6.91519 7.80402C6.09409 7.45561 5.20387 7.30333 4.31441 7.35916C3.42494 7.41499 2.56043 7.67739 1.78878 8.12577C1.31429 8.40809 0.921623 8.8105 0.64988 9.29291C0.378138 9.77533 0.236823 10.3209 0.239972 10.8754C0.239972 13.1935 0.181797 15.5335 0.123625 17.8005C0.0654532 20.0674 0 22.4148 0 24.7549C0 28.928 0 33.1011 0 37.2742V44.0604C0 46.6711 0.0363548 49.3256 0.0654407 51.9947C0.10907 55.4463 0.145424 59.0149 0.130881 62.4446C0.115276 63.2455 0.25978 64.0413 0.555814 64.785C0.851847 65.5286 1.2934 66.2049 1.85424 66.7737C2.3161 67.2259 2.86211 67.5821 3.46104 67.8217C4.05996 68.0614 4.70002 68.1799 5.34455 68.1704H5.55543C6.40984 68.0999 7.21659 67.7454 7.84854 67.1628C8.48049 66.5802 8.90169 65.8027 9.04573 64.9528C9.41363 61.7764 9.52791 58.5753 9.3875 55.3805C9.35114 53.9984 9.3075 52.5651 9.33659 51.0368C9.43112 45.7277 9.4384 40.4041 9.4384 35.4095C9.4384 32.8866 9.43839 30.3345 9.49656 27.8628C9.54746 23.9066 9.59836 19.8188 9.49656 15.6432C9.51838 15.3507 9.51838 15.0363 9.51838 14.7145Z" fill="#1A00DE"></path><path d="M150.856 78.1963C128.947 59.0369 105.213 87.5565 112.623 112.054C111.779 111.725 110.972 111.323 110.15 110.935C109.82 110.789 109.483 110.66 109.14 110.548C108.856 110.453 108.551 110.416 108.274 110.299C108.238 110.286 108.205 110.263 108.18 110.233C108.169 110.19 108.169 110.145 108.18 110.102C108.24 109.412 108.352 108.727 108.514 108.054C108.776 106.789 109.067 105.363 109.401 103.783C110.627 98.3255 110.932 92.6992 110.303 87.1397C110.092 85.37 109.794 83.5638 109.416 81.7356C109.072 80.0349 108.586 78.3665 107.962 76.7483C107.464 75.4224 106.754 74.1873 105.86 73.092C105.517 72.6547 105.084 72.2975 104.591 72.045C104.098 71.7925 103.556 71.6507 103.002 71.6294C101.916 71.6273 100.872 72.0524 100.094 72.8141C99.0803 73.7389 98.1949 74.7965 97.4616 75.9586C96.57 77.336 95.7544 78.7617 95.0184 80.2292C94.2331 81.8014 93.4405 83.359 92.6552 84.902C91.8698 86.445 91.07 87.8271 90.2555 89.1361C89.5782 90.2714 88.6894 91.2646 87.6378 92.0612C87.4097 92.2267 87.1336 92.3115 86.8525 92.3025C86.6983 92.3074 86.5447 92.2809 86.401 92.2245C86.2573 92.1681 86.1265 92.083 86.0164 91.9744C85.9063 91.8657 85.8192 91.7357 85.7605 91.5923C85.7017 91.4488 85.6725 91.2949 85.6745 91.1398C85.4469 88.7365 85.5669 86.3127 86.0308 83.9441C86.4989 81.6072 86.764 79.2338 86.8234 76.8507C86.8781 75.5908 86.6286 74.3362 86.0962 73.1944C85.58 72.1121 84.5111 71.549 82.9041 71.5051C82.2402 71.464 81.578 71.609 80.9913 71.9241C80.4046 72.2391 79.9163 72.7118 79.581 73.2894C78.7544 74.6186 78.1753 76.0881 77.8722 77.6259C77.5064 79.3098 77.2875 81.0226 77.2178 82.7448C77.145 84.4779 77.0942 85.8673 77.0651 86.9057C77.035 88.4898 77.1249 90.074 77.3341 91.6443C77.528 93.2845 77.949 94.8893 78.5848 96.4122C79.1785 97.8237 80.0924 99.0759 81.2534 100.069C82.5266 101.095 84.1156 101.643 85.7472 101.619C87.8811 101.714 89.9742 101.01 91.6226 99.6445C93.2905 98.2809 94.77 96.6996 96.0219 94.9424C97.1882 93.3216 98.2683 91.6397 99.2577 89.9039C100.159 88.3098 100.937 87.3152 101.577 86.9276C102.13 88.0237 102.409 89.2383 102.392 90.467C102.443 91.9295 102.45 93.1435 102.428 94.0722C102.428 94.6499 102.326 95.7322 102.174 97.319C102.021 98.9059 101.803 100.522 101.526 102.16C101.298 103.646 100.957 105.113 100.508 106.548C100.101 107.813 99.614 108.434 99.0541 108.42C98.245 108.396 97.4385 108.318 96.6399 108.186C95.8154 108.045 94.9819 107.964 94.1458 107.944C91.9734 107.906 89.8053 108.152 87.696 108.676C85.4732 109.196 83.3406 110.049 81.3698 111.206C79.4678 112.32 77.8123 113.813 76.5051 115.593C75.5039 116.969 74.8479 118.567 74.5928 120.252L65.1398 121.158C64.3144 121.338 63.452 121.197 62.7257 120.764C61.9985 120.149 61.9113 119.038 61.9113 118.065V79.0299C61.9113 76.9165 61.8095 74.5618 60.3043 73.0993C59.6464 72.4682 58.8061 72.0636 57.9047 71.9439C56.6201 71.7893 55.3175 71.9293 54.0944 72.3534C51.8257 73.0847 51.1858 74.7081 51.1422 76.997L50.8877 124.603C50.8877 126.797 50.9822 129.232 52.5892 130.68C54.1962 132.128 56.4868 131.981 58.5737 131.798L78.6721 130.043C79.2913 130.48 79.9542 130.85 80.6499 131.148C81.8862 131.676 83.2117 131.962 84.5547 131.989C86.6622 132.072 88.7628 131.698 90.7136 130.892C92.5857 130.095 94.3419 129.047 95.9346 127.776C97.5624 126.465 99.0578 124.995 100.399 123.389C101.766 121.78 103.046 120.152 104.239 118.504L105.787 118.716C107.525 118.972 109.132 119.74 110.827 120.179C112.571 120.635 114.369 120.849 116.171 120.815C116.411 120.815 116.651 120.815 116.898 120.771L117.32 121.385C123.77 130.409 134.357 133.722 143.897 129.268C159.895 121.795 166.977 99.7688 155.939 83.7612C154.483 81.6996 152.775 79.83 150.856 78.1963ZM93.0551 119.111C92.3079 119.912 91.4928 120.646 90.6191 121.305C89.7714 121.959 88.8456 122.505 87.8632 122.928C86.9461 123.328 85.9541 123.525 84.9546 123.506C84.4757 123.488 84.0002 123.416 83.5367 123.294C83.0495 123.162 82.8095 122.782 82.8095 122.146C82.8144 121.595 82.9535 121.053 83.2146 120.569C83.4757 120.084 83.851 119.672 84.3075 119.367C85.3416 118.634 86.496 118.089 87.7178 117.758C89.023 117.401 90.3561 117.156 91.7026 117.027C92.7791 116.902 93.8621 116.843 94.9457 116.851C94.3603 117.641 93.729 118.396 93.0551 119.111ZM150.951 104.032C150.593 106.587 149.684 109.032 148.289 111.197C146.893 113.362 145.045 115.194 142.872 116.566C140.81 117.852 138.434 118.538 136.008 118.548C134.023 118.521 132.067 118.07 130.269 117.224C128.471 116.378 126.873 115.156 125.58 113.641C118.651 105.897 120.09 94.5621 125.399 88.5072C130.234 83.0007 137.389 82.2475 143.628 86.6059C146.367 88.5131 148.509 91.1642 149.805 94.2498C151.102 97.3353 151.499 100.728 150.951 104.032Z" fill="#1A00DE"></path><path d="M143.627 86.6058C137.388 82.2182 130.233 83.0007 125.397 88.5071C120.089 94.5621 118.649 105.897 125.579 113.641C126.871 115.156 128.469 116.378 130.267 117.224C132.065 118.07 134.021 118.521 136.006 118.548C138.432 118.538 140.808 117.852 142.87 116.566C145.043 115.194 146.892 113.362 148.287 111.197C149.683 109.032 150.591 106.587 150.949 104.032C151.498 100.728 151.1 97.3353 149.804 94.2497C148.507 91.1642 146.365 88.5131 143.627 86.6058ZM140.718 113.078C139.296 113.966 137.658 114.439 135.984 114.445C134.573 114.415 133.184 114.084 131.909 113.474C130.634 112.864 129.503 111.989 128.589 110.906C123.157 104.829 124.277 95.9588 128.429 91.2201C129.255 90.1961 130.293 89.3657 131.471 88.7872C132.65 88.2087 133.939 87.896 135.25 87.8709C137.426 87.9316 139.531 88.6643 141.278 89.9697C142.196 90.6088 143.032 91.3604 143.765 92.2074C145.044 93.7313 145.987 95.5113 146.531 97.4294C147.074 99.3474 147.207 101.36 146.918 103.333C146.63 105.306 145.929 107.196 144.86 108.876C143.791 110.556 142.379 111.988 140.718 113.078Z" fill="#F06B5D"></path></svg>