<svg xmlns="http://www.w3.org/2000/svg" width="109" height="73" viewBox="0 0 109 73" fill="none"><g clip-path="url(#clip0_76_1048)"><path d="M31.1931 19.4278C32.2643 20.2164 33.3995 20.9727 34.5666 21.6804C35.5735 22.2816 36.5038 23.0055 37.3366 23.8359C36.8369 24.3576 36.3213 24.9238 35.8017 25.5304C35.2028 26.2257 34.6614 26.9696 34.1829 27.7546C33.7022 28.5312 33.3157 29.3636 33.0317 30.2337C32.7505 31.1145 32.6233 32.0383 32.656 32.9634C32.6507 33.639 32.7889 34.3078 33.0613 34.9246C33.3337 35.5413 33.7339 36.0917 34.2348 36.5384C35.2002 37.3544 36.4268 37.7858 37.6843 37.7516H37.9121C39.0531 37.7221 40.1655 37.3842 41.1338 36.773C42.0765 36.1706 42.905 35.4022 43.58 34.5042C44.2682 33.5881 44.7992 32.5614 45.1508 31.4671C45.5063 30.405 45.6753 29.2882 45.6505 28.1671C45.6276 27.5977 45.5689 27.0304 45.4746 26.4686C45.3881 25.9714 45.2542 25.4838 45.0749 25.0127C45.8943 24.2807 46.8576 23.4517 47.8928 22.6955L48.8761 21.9918L49.1559 21.7936L49.0719 23.3587C48.8361 27.6778 48.7922 32.0818 48.9321 36.4494C48.9321 36.9024 48.98 37.323 49.024 37.7031C49.0613 38.0956 49.1827 38.4751 49.3797 38.8152C49.5843 39.1556 49.8812 39.4293 50.2351 39.6038C50.632 39.7876 51.066 39.8748 51.5022 39.8586H51.662C51.9941 39.8483 52.3209 39.7715 52.6234 39.6327C52.926 39.4939 53.1983 39.2957 53.4248 39.0498C53.6655 38.8073 53.8536 38.5165 53.9768 38.1961C54.1 37.8758 54.1557 37.5329 54.1402 37.1895C54.1402 35.9237 54.1123 34.6458 54.0883 33.3517C54.0643 32.0575 54.0883 30.7836 54.1242 29.53C54.2415 26.3675 54.3587 23.2508 54.476 20.18C54.5919 17.1793 54.7438 14.0492 54.9237 10.8786C54.9346 10.1667 54.6887 9.47517 54.2322 8.93339C54.0189 8.65087 53.7417 8.42438 53.4237 8.27305C53.1058 8.12172 52.7566 8.04999 52.4055 8.06391C51.7729 8.10643 51.1686 8.34506 50.6748 8.74736C50.398 8.92473 50.1674 9.16686 50.0025 9.45333C49.8377 9.7398 49.7433 10.0622 49.7275 10.3933C49.6475 12.011 49.5689 13.6286 49.4916 15.2462C48.7362 15.7275 47.9528 16.2573 47.0934 16.8639C45.4106 18.0771 43.7718 19.4076 42.189 20.6896L42.157 20.7138C42.0825 20.7795 41.9954 20.8291 41.9012 20.8594C41.1324 20.2136 40.3248 19.6167 39.483 19.0719C38.4078 18.3561 37.3246 17.5837 36.2614 16.7709C35.2715 16.0321 34.3364 15.2211 33.4634 14.3444C32.72 13.5841 32.3282 12.8885 32.3123 12.2819C32.3233 11.6123 32.5199 10.9594 32.8798 10.3974C33.3207 9.65383 33.8585 8.97371 34.4787 8.37531C35.1018 7.75526 35.7955 7.21225 36.5451 6.75767C37.1317 6.37483 37.8037 6.14681 38.4997 6.09444C38.576 6.08529 38.6532 6.09284 38.7263 6.11656C38.7994 6.14029 38.8666 6.17963 38.9234 6.23193C39.0564 6.37329 39.1586 6.5414 39.2232 6.72531C39.3009 6.94031 39.3506 7.16462 39.3711 7.39259C39.3951 7.65546 39.4071 7.87788 39.415 8.05987C39.4154 8.77985 39.6269 9.48353 40.0226 10.0819C40.2489 10.382 40.5485 10.6173 40.8918 10.7648C41.2352 10.9122 41.6106 10.9668 41.9812 10.9231C43.0124 10.8867 43.7239 10.4701 44.0996 9.68155C44.4455 8.95085 44.6088 8.14543 44.5752 7.33597C44.5483 6.49395 44.3808 5.6626 44.0796 4.87716C43.7845 4.11086 43.3523 3.40618 42.8046 2.7985C42.2543 2.20068 41.591 1.72074 40.854 1.38711C40.0601 1.03672 39.197 0.876191 38.3318 0.917989C36.9318 0.98668 35.5653 1.37519 34.3348 2.05438C33.0002 2.76238 31.7782 3.66891 30.7094 4.7437C29.6448 5.80666 28.7554 7.0355 28.0754 8.3834C27.4223 9.62896 27.0923 11.0218 27.1161 12.4315C27.115 13.9192 27.558 15.3724 28.3871 16.601C29.1688 17.6875 30.1159 18.6416 31.1931 19.4278ZM37.9881 31.8109C38.2437 31.0195 38.6681 30.2947 39.2312 29.6877C39.6309 29.2267 40.0306 28.8223 40.3783 28.4745C40.3583 28.6241 40.3344 28.7818 40.3024 28.9436C40.2164 29.3885 40.0824 29.8225 39.9027 30.2377C39.7229 30.6439 39.4976 31.028 39.2312 31.3822C38.9884 31.7008 38.6692 31.9513 38.3039 32.1101C38.136 32.1991 38.084 32.1506 38.0401 32.1101C37.9961 32.0697 37.9121 31.9807 37.9721 31.8109H37.9881Z" fill="#FBEBE7"></path><path d="M51.8979 6.15511H52.0218C52.4684 6.15441 52.9055 6.02387 53.2809 5.77901C53.6088 5.5573 53.8822 5.26266 54.0803 4.91761C54.278 4.57396 54.4133 4.19733 54.48 3.80549C54.5498 3.41469 54.5779 3.01744 54.5639 2.62056C54.5543 1.95026 54.3204 1.30304 53.9004 0.784544C53.6911 0.521987 53.4224 0.314335 53.1169 0.179173C52.8115 0.044011 52.4783 -0.0146784 52.1457 0.00807838C51.7054 -0.00778336 51.2687 0.0937053 50.8794 0.302376C50.49 0.511047 50.1617 0.819574 49.9273 1.19704C49.4933 1.91888 49.2818 2.75521 49.3198 3.59924C49.3177 3.94845 49.3838 4.29463 49.5141 4.618C49.6444 4.94137 49.8364 5.23557 50.0792 5.48379C50.3231 5.71229 50.6095 5.88935 50.9218 6.00461C51.234 6.11987 51.5659 6.17104 51.8979 6.15511Z" fill="#FBEBE7"></path><path d="M24.9697 3.93895C23.7706 3.28381 22.2077 3.56689 21.4603 4.56983C20.7128 5.57277 20.7248 7.0246 20.7528 8.27827C20.7528 8.53709 20.7528 8.79187 20.7528 9.03452L20.6329 21.737L12.9545 7.42092C12.4669 6.50696 11.9113 5.47571 11.0119 4.77204C10.6044 4.42692 10.1099 4.2036 9.58385 4.12717C9.05782 4.05073 8.52115 4.12419 8.03412 4.33932C7.6533 4.54315 7.33939 4.85476 7.1307 5.2361C6.92202 5.61744 6.82761 6.052 6.85898 6.48674L6.95092 13.4871C6.95092 14.8418 6.97889 16.1966 6.99488 17.5312C7.01886 20.2003 7.04684 22.9624 7.1068 25.68C7.13078 26.6263 7.1481 27.57 7.15876 28.5109V29.2793C7.18274 30.7271 7.21472 32.2638 7.33463 33.7763C7.33463 33.9179 7.35861 34.0675 7.3666 34.2252C7.38519 34.8249 7.46421 35.4211 7.60243 36.0046C7.68748 36.3233 7.83593 36.6212 8.03868 36.8798C8.24143 37.1385 8.49421 37.3526 8.78157 37.509C9.17015 37.7187 9.60425 37.8271 10.0446 37.8244C10.7095 37.8278 11.3543 37.5941 11.8659 37.1645C12.3776 36.7348 12.7233 36.1366 12.8426 35.4748C13.0165 34.4457 13.0165 33.3941 12.8426 32.3649C12.8066 32.0535 12.7746 31.7462 12.7507 31.4429C12.6108 29.5421 12.5108 27.8032 12.4069 25.9752L12.0472 19.6867C12.0472 19.6179 12.0472 19.537 12.0472 19.444C12.3483 20.0641 12.6454 20.6829 12.9385 21.3003L14.4214 24.3778C15.9363 27.5039 17.4992 30.7392 18.8822 33.9745C19.4577 35.3252 20.0813 36.5991 21.3044 37.2866C22.2157 37.8002 23.7026 38.0064 24.7578 37.2421C25.8131 36.4778 25.861 34.9046 25.849 33.9866C25.849 33.6307 25.849 33.2789 25.8291 32.923C25.8091 31.7866 25.7851 30.6098 25.8291 29.4572C25.853 28.5513 25.869 27.6495 25.881 26.7436C25.893 25.8377 25.909 25.033 25.929 24.1756L26.3287 8.4926C26.3287 8.34702 26.3287 8.19739 26.3287 8.04371C26.4046 6.68489 26.4806 4.77204 24.9697 3.93895Z" fill="#FBEBE7"></path><path d="M58.681 37.5899C59.8973 37.8949 61.1501 38.0243 62.4022 37.9741H62.9179C65.4023 38.0267 67.845 37.3221 69.9287 35.9521C71.2423 35.0398 72.3667 33.8762 73.2383 32.5267C76.4547 33.6201 79.9144 33.752 83.203 32.9069C83.3269 33.0727 83.4548 33.2344 83.5827 33.3922C86.5645 37.0763 91.1771 39.5311 96.9249 40.5017C97.0797 40.5259 97.236 40.538 97.3926 40.5381C98.1073 40.5415 98.797 40.2719 99.3238 39.7833C99.8506 39.2946 100.176 38.6228 100.234 37.9021C100.293 37.1814 100.081 36.4648 99.6397 35.8957C99.1988 35.3265 98.5619 34.9466 97.8562 34.8319C95.1342 34.3708 91.385 33.2628 88.7229 30.5815C92.1834 28.4757 94.9017 25.3222 96.4932 21.5672C97.8242 18.3562 98.116 15.1937 97.3406 12.4276C96.3173 8.75957 93.3435 6.00554 89.9021 5.5526C86.9682 5.18459 83.8665 6.53127 81.796 9.07096C80.2611 10.9555 79.2819 13.4305 78.8861 16.4231C78.4004 20.2045 78.875 24.0487 80.2651 27.5929C78.6715 27.7809 77.0568 27.6434 75.5166 27.1885C76.0571 25.0054 76.3627 22.7695 76.4279 20.5198C76.6997 13.9401 75.0689 9.11545 71.5835 6.17539C71.0125 5.6939 70.3983 5.26742 69.7488 4.9015C67.8337 3.85488 65.694 3.29944 63.5174 3.28386H63.3855C61.8706 3.25555 59.5803 3.21511 58.589 4.59819C58.09 5.39096 57.8341 6.31546 57.8536 7.25516C57.8216 8.06398 57.7923 8.8728 57.7656 9.68162C57.7337 10.6482 57.7017 11.6147 57.6617 12.5812L57.238 22.9705C57.1781 24.3738 57.0901 25.8014 57.0062 27.2047C56.8543 29.6312 56.7024 32.1142 56.7024 34.5609C56.6904 36.1624 57.3779 37.2098 58.681 37.5899ZM63.4535 10.5754C63.4535 9.90405 63.4535 9.41876 63.5774 9.2853C63.7137 9.20474 63.8725 9.17203 64.029 9.19229C65.4367 9.26617 66.7799 9.8126 67.8462 10.7452C69.8448 12.4478 70.7561 15.6548 70.5642 20.2731C70.3444 25.676 68.9894 29.3966 66.6511 31.0264C65.9814 31.4881 65.2293 31.8136 64.4367 31.9848L64.3048 32.0172C63.9971 32.09 63.1777 32.2841 62.9618 32.0495C62.746 31.815 62.722 31.3822 62.754 30.5289C62.754 30.2998 62.762 30.045 62.778 29.7646C62.778 28.883 62.8379 27.9812 62.8859 27.1076C62.9099 26.6304 62.9338 26.1532 62.9538 25.672C63.0284 23.8872 63.1017 22.1037 63.1737 20.3216L63.2936 17.3775C63.3735 15.4445 63.3895 14.664 63.4375 11.55C63.4575 11.182 63.4575 10.8585 63.4535 10.5754ZM87.9955 9.76655C88.2048 9.72281 88.4174 9.6971 88.631 9.68971C89.289 9.68441 89.94 9.82674 90.5371 10.1064C91.1343 10.3862 91.6627 10.7963 92.0844 11.3074C92.9174 12.3483 93.3968 13.6331 93.4515 14.9713C93.4986 16.3036 93.2868 17.6323 92.8279 18.8819C91.5671 22.4893 88.994 25.4745 85.6332 27.229C85.4259 27.3586 85.1853 27.4234 84.9417 27.415C84.51 27.3382 84.3062 26.8488 84.1783 26.4242C83.4111 24.0721 82.983 21.6205 82.9072 19.1448C82.8512 15.6669 84.0024 10.5713 87.9955 9.7625V9.76655Z" fill="#FBEBE7"></path><path d="M108.964 65.3324C108.655 58.7783 108.349 52.2241 108.045 45.67C107.981 44.2869 107.897 42.8391 107.169 41.6664C106.442 40.4936 104.835 39.7616 103.66 40.4531C102.369 41.2296 102.357 43.0899 102.509 44.6064L103.756 57.2442C101.881 52.5733 99.9826 47.8579 97.1647 43.6924C96.5492 42.7785 95.8457 41.8564 94.8544 41.3873C90.7134 39.4138 90.0579 47.049 89.8581 49.4512C89.5503 53.3538 89.4344 57.2685 89.4863 61.1791C89.4677 63.5705 89.6563 65.9589 90.0499 68.317C90.2058 69.1541 90.4496 70.06 91.1451 70.5493C92.2483 71.3298 93.8791 70.5493 94.4907 69.3361C95.1022 68.1228 94.9863 66.6872 94.8904 65.3284C94.516 60.1808 94.5414 55.0114 94.9663 49.8678C98.124 56.8075 99.3151 63.2133 102.932 69.1743C103.528 70.157 104.323 71.1721 105.447 71.3702C105.678 71.4066 105.914 71.4066 106.146 71.3702C106.682 71.254 107.181 71.0057 107.6 70.6473C108.018 70.2889 108.343 69.8316 108.544 69.3158C109.08 68.0824 109.024 66.6791 108.964 65.3324Z" fill="#FBEBE7"></path><path d="M23.3469 46.8954C22.4195 47.1582 19.7055 47.5788 18.2946 46.3777C17.3792 45.5972 17.0275 44.109 17.2513 41.9292C17.2757 41.6902 17.2534 41.4487 17.1856 41.2185C17.1177 40.9882 17.0057 40.7738 16.8559 40.5873C16.7062 40.4009 16.5216 40.2461 16.3127 40.1318C16.1038 40.0175 15.8747 39.946 15.6385 39.9213C15.4023 39.8966 15.1636 39.9192 14.936 39.9879C14.7085 40.0565 14.4965 40.1698 14.3122 40.3214C14.1279 40.4729 13.975 40.6596 13.862 40.871C13.7491 41.0823 13.6784 41.3141 13.654 41.5531C13.2982 44.9987 14.0817 47.5586 15.9763 49.1641C17.5231 50.4703 19.4577 50.8222 21.0805 50.8222C22.1768 50.8198 23.2681 50.6716 24.3262 50.3814C24.7659 50.2314 25.1316 49.9157 25.3471 49.4999C25.5626 49.0841 25.6113 48.6002 25.483 48.1489C25.3548 47.6977 25.0595 47.3139 24.6586 47.0774C24.2578 46.8409 23.7822 46.7699 23.3309 46.8792L23.3469 46.8954Z" fill="#F06B5D"></path><path d="M100.962 24.936C101.145 24.9347 101.327 24.8991 101.498 24.8308C102.569 24.3941 103.856 23.7268 104.359 22.4044C104.863 21.0819 104.335 19.6786 103.752 18.4937C103.724 18.4371 103.704 18.3886 103.688 18.3481C103.958 18.2063 104.236 18.0794 104.519 17.968C105.233 17.7261 105.895 17.3486 106.47 16.8559C106.774 16.5824 107.009 16.2393 107.156 15.8553C107.303 15.4712 107.357 15.0572 107.313 14.6478C107.125 13.0787 105.571 11.9868 104.076 11.1254C103.912 11.0056 103.725 10.9221 103.527 10.8802C103.329 10.8383 103.124 10.8389 102.927 10.8821C102.729 10.9253 102.543 11.01 102.379 11.1308C102.216 11.2516 102.08 11.4058 101.979 11.5833C101.879 11.7608 101.816 11.9578 101.796 12.1613C101.775 12.3649 101.797 12.5705 101.86 12.7649C101.923 12.9593 102.026 13.138 102.162 13.2896C102.298 13.4412 102.464 13.5622 102.649 13.6448C103.264 13.9646 103.829 14.3733 104.327 14.8581C104.041 15.0131 103.745 15.1483 103.44 15.2625C102.517 15.6426 101.374 16.1117 100.926 17.2845C100.791 17.6932 100.743 18.1263 100.786 18.555C100.828 18.9838 100.961 19.3985 101.174 19.7716C101.757 20.9849 101.685 21.2922 101.669 21.3488C101.653 21.4055 101.518 21.6724 100.426 22.1172C100.114 22.2416 99.8541 22.4728 99.6922 22.7705C99.5304 23.0683 99.4766 23.414 99.5402 23.7476C99.6038 24.0813 99.7807 24.382 100.04 24.5975C100.3 24.8131 100.626 24.9299 100.962 24.9279V24.936Z" fill="#F06B5D"></path><path d="M84.1542 26.4282C84.2821 26.8326 84.486 27.3422 84.9177 27.419C85.1612 27.4274 85.4018 27.3627 85.6091 27.233C88.97 25.4785 91.543 22.4934 92.8039 18.886C93.2627 17.6363 93.4746 16.3076 93.4274 14.9753C93.3727 13.6371 92.8934 12.3523 92.0604 11.3114C91.6387 10.8003 91.1102 10.3902 90.5131 10.1105C89.916 9.83077 89.265 9.68845 88.6069 9.69375C88.3933 9.70114 88.1807 9.72685 87.9714 9.77059C83.9743 10.5794 82.8272 15.6911 82.8592 19.1691C82.9447 21.6391 83.3808 24.0838 84.1542 26.4282ZM85.0735 18.8779C85.0735 16.6172 85.5852 13.4265 87.7436 12.2132C88.0871 12.0152 88.4754 11.9107 88.8708 11.9099C89.0811 11.9087 89.2898 11.9471 89.4863 12.0231C89.8895 12.2017 90.2336 12.4937 90.4776 12.8643C91.0409 13.7072 91.3212 14.7111 91.277 15.7275C91.2247 16.7389 90.9918 17.7322 90.5895 18.6595C90.1176 19.8232 89.4836 20.9127 88.7069 21.8948C88.0194 22.7643 87.3719 23.6701 86.4006 24.2404C86.1887 24.3657 86.0009 24.4385 85.845 24.204C85.7097 23.9519 85.6178 23.6784 85.5732 23.3951C85.2422 21.9127 85.0746 20.3977 85.0735 18.8779Z" fill="#F06B5D"></path><path d="M5.23216 8.14081C5.23216 6.81839 5.23216 5.01068 3.80121 4.31914C3.34986 4.12646 2.86052 4.04225 2.37159 4.07312C1.88266 4.104 1.40744 4.24911 0.983275 4.49708C0.722452 4.65321 0.506607 4.87575 0.357233 5.14253C0.207859 5.40932 0.130179 5.71104 0.13191 6.01766C0.13191 7.29964 0.099932 8.59375 0.0679555 9.84742C0.035979 11.1011 0 12.3992 0 13.6934C0 16.0012 0 18.309 0 20.6168V24.3698C0 25.8135 0.0199839 27.2815 0.0359721 28.7576C0.0599545 30.6664 0.0799384 32.64 0.0719443 34.5366C0.063366 34.9795 0.142799 35.4197 0.305525 35.8309C0.468252 36.2422 0.710968 36.6162 1.01926 36.9307C1.27314 37.1808 1.57328 37.3778 1.9025 37.5103C2.23172 37.6429 2.58355 37.7084 2.93785 37.7032H3.05376C3.52342 37.6642 3.96689 37.4681 4.31426 37.1459C4.66164 36.8237 4.89317 36.3938 4.97235 35.9238C5.17458 34.1671 5.2374 32.3969 5.16021 30.63C5.14023 29.8657 5.11624 29.0731 5.13223 28.2278C5.18419 25.2918 5.1882 22.3477 5.1882 19.5856C5.1882 18.1904 5.18819 16.779 5.22017 15.4121C5.24815 13.2242 5.27613 10.9636 5.22017 8.65441C5.23216 8.49265 5.23216 8.31875 5.23216 8.14081Z" fill="#FBEBE7"></path><path d="M82.9231 43.2476C70.8799 32.652 57.8335 48.424 61.9065 61.9718C61.4429 61.7898 60.9992 61.5674 60.5475 61.353C60.366 61.2721 60.1806 61.2006 59.9919 61.1387C59.836 61.0861 59.6682 61.0659 59.5163 61.0012C59.4961 60.994 59.4781 60.9814 59.4643 60.9648C59.4582 60.9409 59.4582 60.9159 59.4643 60.892C59.4976 60.5104 59.5591 60.1319 59.6482 59.7596C59.7921 59.06 59.952 58.2714 60.1358 57.3979C60.8094 54.3795 60.9769 51.2681 60.6315 48.1935C60.5156 47.2148 60.3517 46.216 60.1438 45.2049C59.9549 44.2644 59.6874 43.3417 59.3444 42.4469C59.071 41.7136 58.6808 41.0305 58.1893 40.4248C58.0009 40.183 57.7629 39.9855 57.4917 39.8458C57.2204 39.7062 56.9225 39.6278 56.6184 39.616C56.0214 39.6148 55.4475 39.8499 55.0196 40.2711C54.4624 40.7826 53.9758 41.3675 53.5726 42.0101C53.0826 42.7719 52.6342 43.5603 52.2296 44.3718C51.798 45.2413 51.3623 46.1027 50.9306 46.956C50.4989 47.8093 50.0592 48.5737 49.6115 49.2976C49.2392 49.9254 48.7507 50.4747 48.1726 50.9152C48.0472 51.0067 47.8954 51.0537 47.7409 51.0487C47.6562 51.0514 47.5718 51.0367 47.4928 51.0055C47.4138 50.9743 47.3418 50.9273 47.2813 50.8672C47.2208 50.8071 47.1729 50.7352 47.1406 50.6559C47.1083 50.5766 47.0923 50.4914 47.0934 50.4056C46.9683 49.0766 47.0343 47.7362 47.2893 46.4262C47.5465 45.1339 47.6923 43.8214 47.7249 42.5035C47.755 41.8067 47.6179 41.1129 47.3252 40.4814C47.0414 39.8829 46.4539 39.5715 45.5705 39.5472C45.2056 39.5245 44.8416 39.6047 44.5191 39.7789C44.1966 39.9531 43.9282 40.2145 43.7439 40.534C43.2895 41.2691 42.9712 42.0817 42.8045 42.9321C42.6035 43.8634 42.4831 44.8106 42.4448 45.763C42.4048 46.7215 42.3769 47.4898 42.3609 48.0641C42.3443 48.9402 42.3938 49.8162 42.5088 50.6847C42.6153 51.5917 42.8468 52.4792 43.1963 53.3214C43.5226 54.102 44.025 54.7945 44.6632 55.3435C45.363 55.9112 46.2365 56.2143 47.1334 56.2008C48.3063 56.2533 49.4569 55.8643 50.363 55.1089C51.2798 54.3549 52.0931 53.4804 52.7812 52.5086C53.4224 51.6122 54.0161 50.6821 54.5599 49.7222C55.0556 48.8406 55.4832 48.2906 55.835 48.0762C56.1386 48.6824 56.2922 49.3541 56.2827 50.0336C56.3106 50.8424 56.3146 51.5137 56.3026 52.0273C56.3026 52.3468 56.2467 52.9453 56.1627 53.8229C56.0788 54.7005 55.9589 55.5942 55.807 56.5001C55.6813 57.3221 55.4942 58.1332 55.2474 58.9266C55.0236 59.6262 54.7558 59.9699 54.448 59.9618C54.0033 59.949 53.5599 59.9058 53.121 59.8324C52.6678 59.7544 52.2096 59.7098 51.75 59.699C50.5559 59.6777 49.3641 59.8137 48.2046 60.1034C46.9827 60.391 45.8105 60.8627 44.7271 61.5026C43.6816 62.1186 42.7716 62.9443 42.0531 63.9291C41.5027 64.6896 41.1421 65.5734 41.0019 66.5052L35.8057 67.0067C35.352 67.106 34.8779 67.028 34.4787 66.7883C34.079 66.4486 34.031 65.8339 34.031 65.296V43.7086C34.031 42.5399 33.975 41.2377 33.1476 40.4289C32.786 40.0798 32.3241 39.8561 31.8286 39.7899C31.1225 39.7044 30.4064 39.7818 29.7341 40.0164C28.4871 40.4208 28.1353 41.3186 28.1113 42.5844L27.9714 68.9114C27.9714 70.1247 28.0234 71.4714 28.9067 72.2721C29.7901 73.0728 31.0492 72.9919 32.1963 72.8908L43.2442 71.9202C43.5846 72.1616 43.949 72.3662 44.3314 72.5309C45.011 72.8231 45.7396 72.981 46.4778 72.996C47.6363 73.0422 48.791 72.8353 49.8634 72.3894C50.8924 71.9487 51.8578 71.3691 52.7333 70.6666C53.628 69.9412 54.4501 69.1285 55.1875 68.2401C55.9389 67.3504 56.6424 66.4499 57.2979 65.5387L58.1493 65.6559C59.1046 65.7975 59.9879 66.2221 60.9193 66.4648C61.8781 66.717 62.8665 66.8354 63.8571 66.8166C63.989 66.8166 64.1209 66.8166 64.2568 66.7923L64.4886 67.132C68.034 72.1225 73.8538 73.9544 79.0979 71.4916C87.8915 67.3585 91.7846 55.1777 85.7171 46.3251C84.9167 45.185 83.9781 44.1511 82.9231 43.2476ZM51.1504 65.8743C50.7397 66.3172 50.2917 66.7232 49.8114 67.0875C49.3454 67.4496 48.8365 67.7512 48.2965 67.9853C47.7924 68.2066 47.2471 68.3155 46.6977 68.3048C46.4344 68.2947 46.173 68.2554 45.9183 68.1875C45.6505 68.1147 45.5186 67.9045 45.5186 67.5526C45.5212 67.2479 45.5977 66.9485 45.7412 66.6805C45.8848 66.4126 46.091 66.1844 46.342 66.0159C46.9104 65.6103 47.545 65.3091 48.2166 65.1262C48.934 64.9286 49.6668 64.7933 50.407 64.7217C50.9987 64.6527 51.594 64.6203 52.1897 64.6247C51.8679 65.0616 51.5209 65.4788 51.1504 65.8743ZM82.9751 57.5354C82.7783 58.9482 82.2789 60.3005 81.5119 61.4978C80.7449 62.695 79.7287 63.7084 78.5343 64.467C77.4008 65.1779 76.0948 65.5573 74.7611 65.5629C73.6701 65.5481 72.5947 65.2985 71.6064 64.8306C70.6181 64.3628 69.7396 63.6874 69.0293 62.8493C65.2201 58.5666 66.0115 52.2983 68.9294 48.9498C71.5874 45.9046 75.5205 45.488 78.95 47.8983C80.4552 48.9531 81.6329 50.4192 82.3456 52.1255C83.0582 53.8319 83.2766 55.7082 82.9751 57.5354Z" fill="#FBEBE7"></path><path d="M78.95 47.8983C75.5205 45.4718 71.5874 45.9045 68.9294 48.9497C66.0115 52.2983 65.2201 58.5666 69.0293 62.8493C69.7396 63.6873 70.6181 64.3627 71.6064 64.8306C72.5947 65.2985 73.6701 65.5481 74.7611 65.5629C76.0948 65.5572 77.4008 65.1779 78.5343 64.4669C79.7287 63.7083 80.7449 62.695 81.5119 61.4977C82.2789 60.3005 82.7783 58.9482 82.9751 57.5354C83.2766 55.7082 83.0582 53.8319 82.3456 52.1255C81.6329 50.4191 80.4552 48.953 78.95 47.8983ZM77.3512 62.5379C76.5697 63.0288 75.6689 63.2906 74.7491 63.2941C73.9732 63.2775 73.2097 63.0944 72.5089 62.757C71.8082 62.4196 71.1862 61.9355 70.6841 61.3368C67.6983 57.9762 68.3138 53.0707 70.5962 50.4501C71.0501 49.8838 71.6208 49.4246 72.2684 49.1047C72.916 48.7847 73.6249 48.6118 74.3454 48.5979C75.5415 48.6314 76.6984 49.0367 77.659 49.7586C78.1637 50.112 78.6229 50.5277 79.026 50.9961C79.7292 51.8389 80.2475 52.8232 80.5463 53.884C80.8452 54.9447 80.9178 56.0576 80.7595 57.1489C80.6011 58.2401 80.2154 59.2849 79.6278 60.214C79.0402 61.1431 78.2642 61.9352 77.3512 62.5379Z" fill="#F06B5D"></path></g><defs><clipPath id="clip0_76_1048"><rect width="109" height="73" fill="white"></rect></clipPath></defs></svg>