<svg xmlns="http://www.w3.org/2000/svg" width="14" height="13" viewBox="0 0 14 13" fill="none"><path d="M11.2259 5.22523L7.79464 10.7969C7.52013 11.2543 7.48592 11.8795 7.96777 12.2167C8.37314 12.5029 9.09531 12.5141 9.39439 12.0282L12.8257 6.45656C13.1002 5.99913 13.1344 5.37388 12.6525 5.03666C12.2455 4.75175 11.525 4.73933 11.2259 5.22523Z" fill="#F39E3D"></path><path d="M8.18297 3.17934C7.39942 3.92371 6.53582 4.5794 5.6083 5.13423C5.55765 5.17215 5.49977 5.20039 5.44592 5.23062C5.42959 5.24285 5.26683 5.33191 5.36025 5.27962C5.45366 5.22733 5.2921 5.31801 5.27498 5.32579L5.06699 5.43615C4.83127 5.55716 4.59192 5.67333 4.34774 5.78304C3.84788 6.00734 3.33612 6.20368 2.81485 6.37114C2.69033 6.42034 2.57647 6.49341 2.47977 6.58615C2.38308 6.6789 2.30544 6.78951 2.25131 6.91168C2.19718 7.03385 2.1676 7.16518 2.16426 7.29817C2.16093 7.43116 2.18391 7.56323 2.23189 7.6868C2.33448 7.9321 2.52829 8.12761 2.77313 8.2328C3.01797 8.33799 3.29506 8.34478 3.54705 8.25181C5.72657 7.54942 7.72443 6.36747 9.39165 4.79408C9.77734 4.42728 9.98002 3.82961 9.60422 3.37523C9.29175 2.99185 8.59892 2.78485 8.18297 3.17934Z" fill="#F39E3D"></path><path d="M6.18703 0.332242C6.01058 0.464321 5.81192 0.570154 5.63952 0.704239C5.71468 0.647984 5.82104 0.606164 5.6722 0.679779C5.62972 0.711576 5.57475 0.730076 5.52502 0.752184C5.42513 0.799238 5.32404 0.844699 5.22096 0.884071C5.11787 0.923444 5.03635 0.954182 4.94022 0.985825C4.8885 1.00187 4.83515 1.01912 4.78222 1.03355L4.71871 1.05088C4.63401 1.07397 4.63401 1.07397 4.71871 1.05088C4.8034 1.0278 4.8034 1.0278 4.71871 1.05088L4.65276 1.06494L4.49 1.09611C4.38136 1.11444 4.26376 1.13443 4.1613 1.14058C4.05883 1.14673 3.96567 1.15851 3.86484 1.16343L3.70021 1.16826C3.57458 1.17411 3.91354 1.1774 3.72907 1.16935C3.50917 1.16026 3.29014 1.13829 3.07311 1.10357C2.96389 1.08706 2.85712 1.06363 2.75038 1.04023C2.64364 1.01683 2.76019 1.03288 2.8088 1.05696C2.75166 1.03171 2.68105 1.01911 2.62022 0.99914C2.41224 0.929686 2.2096 0.845617 2.01383 0.74757C1.7661 0.644704 1.48639 0.64457 1.23624 0.747235C0.986101 0.849901 0.786001 1.04696 0.679946 1.29503C0.580454 1.54368 0.580282 1.81988 0.679431 2.06645C0.778579 2.31301 0.96947 2.51108 1.21261 2.61965C2.19886 3.08495 3.29803 3.26808 4.38872 3.1488C5.47942 3.02953 6.51921 2.61249 7.39329 1.94375C7.60728 1.77965 7.74931 1.53936 7.78903 1.27422C7.82875 1.00909 7.76301 0.740156 7.60586 0.524904C7.44298 0.314337 7.20356 0.176149 6.93829 0.139585C6.67301 0.103021 6.40271 0.170952 6.18461 0.329009L6.18703 0.332242Z" fill="#F39E3D"></path></svg>