<svg xmlns="http://www.w3.org/2000/svg" width="11" height="11" viewBox="0 0 11 11" fill="none"><path d="M2.46456 8.03737L3.31511 1.54945C3.37838 1.01974 3.15372 0.435284 2.57606 0.324795C2.0891 0.229622 1.4256 0.514953 1.35156 1.0807L0.500963 7.5686C0.437694 8.09831 0.662396 8.68279 1.24005 8.79328C1.728 8.88667 2.39052 8.60312 2.46456 8.03737Z" fill="#F39E3D"></path><path d="M6.73945 10.0761C7.14975 9.0762 7.66937 8.12451 8.2886 7.23868C8.31929 7.18336 8.36054 7.1339 8.39731 7.08428C8.40721 7.06644 8.51926 6.91857 8.45543 7.00451C8.39159 7.09045 8.50189 6.94159 8.51433 6.92749L8.65894 6.74168C8.82449 6.53479 8.99534 6.33084 9.17323 6.13081C9.53753 5.72159 9.92412 5.33301 10.3312 4.96689C10.4247 4.87103 10.4987 4.75776 10.5489 4.63357C10.5992 4.50937 10.6248 4.37668 10.6242 4.24305C10.6236 4.10943 10.5968 3.9775 10.5454 3.85479C10.494 3.73208 10.419 3.62098 10.3247 3.52787C10.1307 3.34604 9.87382 3.24697 9.60738 3.25119C9.34093 3.25541 9.08533 3.36262 8.89346 3.55056C7.19228 5.08342 5.85308 6.97947 4.97579 9.09738C4.77399 9.5899 4.83365 10.2182 5.36251 10.479C5.8045 10.7009 6.52138 10.6062 6.73945 10.0761Z" fill="#F39E3D"></path></svg>