<svg xmlns="http://www.w3.org/2000/svg" width="121" height="140" viewBox="0 0 121 140" fill="none"><path d="M143.427 63.2892C126.25 50.3604 103.445 44.2446 80.6896 46.463C82.5532 36.0791 86.6026 26.2145 92.5693 17.5233C94.3147 15.0294 96.235 12.6629 98.3158 10.4417C99.335 9.2546 99.8558 7.71866 99.7696 6.15445C99.6834 4.59024 98.9968 3.11873 97.8531 2.04697C96.7094 0.975217 95.197 0.386117 93.6316 0.402639C92.0662 0.419162 90.5688 1.03991 89.452 2.13552C86.9888 4.77376 84.7137 7.58187 82.6436 10.5392C74.8002 21.8763 69.7843 34.9313 68.0145 48.6145C62.2397 49.9993 56.6195 51.9607 51.2381 54.469C33.1258 63.0931 16.5659 74.6521 2.22624 88.68C1.16864 89.8216 0.590549 91.327 0.611512 92.885C0.632474 94.443 1.2509 95.9345 2.33889 97.0513C3.42687 98.168 4.90125 98.8246 6.45736 98.8854C8.01347 98.9461 9.53238 98.4064 10.7 97.3778C24.0683 84.291 39.5089 73.5072 56.3987 65.4618C59.8966 63.827 63.515 62.4629 67.2221 61.3814C67.2209 76.0894 71.158 90.5364 78.6238 103.22C81.971 108.787 91.2886 122.717 105.461 131.879C119.418 140.912 133.325 142.08 145.68 135.246L146.564 134.748C147.816 134.022 149.028 133.229 150.194 132.372C154.384 129.354 157.843 125.434 160.317 120.9C162.79 116.365 164.216 111.332 164.488 106.169C165.433 90.697 156.948 73.4714 143.427 63.2892ZM140.532 124.229L139.819 124.632C131.517 129.215 122.19 128.216 112.08 121.699C103.73 116.288 95.0918 107.018 89.0574 96.9675C82.264 85.4265 78.9114 72.1868 79.3959 58.8134C85.3542 58.0624 91.3772 57.9562 97.3606 58.4966C111.372 59.6177 124.798 64.6315 136.128 72.9729C146.335 80.7306 153.075 94.0187 152.397 105.404C151.941 113.46 147.852 119.989 140.517 124.209L140.532 124.229Z" fill="white"></path></svg>