<svg xmlns="http://www.w3.org/2000/svg" width="54" height="191" viewBox="0 0 54 191" fill="none"><path d="M35.4168 184.022C35.2781 183.351 35.0073 182.713 34.62 182.147C34.2328 181.581 33.737 181.098 33.1612 180.725C23.6045 174.482 10.9419 161.5 15.196 151.316C16.6227 147.895 23.8501 143.986 29.6294 140.815C38.93 135.768 48.5464 130.547 51.0426 121.77C52.2673 117.44 51.5543 112.889 48.9033 108.258C45.8024 102.83 38.7694 98.805 30.627 94.1356C22.4846 89.4661 12.268 83.6106 11.2387 77.9796C10.8608 75.9194 11.7644 73.5947 14.0036 70.8675C16.997 67.1924 22.8354 65.0787 29.0317 62.8042C34.0819 60.9488 39.3098 59.0281 43.6722 56.0144C49.2186 52.1889 52.3541 47.3217 53.252 41.1279C54.4688 32.8422 51.6774 25.2564 44.9922 18.588C39.6865 13.2941 32.6816 9.25528 26.4942 5.68528C23.7567 4.10539 21.1641 2.60523 18.9968 1.16181C17.8439 0.45422 16.4616 0.221148 15.1404 0.511617C13.8193 0.802086 12.6622 1.59341 11.9124 2.71932C11.1627 3.84523 10.8786 5.21798 11.12 6.54898C11.3613 7.87999 12.1093 9.06555 13.2067 9.85649C15.6636 11.4593 18.373 13.0532 21.281 14.7292C27.1601 18.1258 33.282 21.6583 37.619 25.9806C41.956 30.3028 43.6419 34.649 42.9165 39.6298C41.9241 46.4781 35.6475 49.2481 25.4325 52.9986C18.2023 55.6596 10.7194 58.3996 5.93197 64.2414C1.68089 69.4131 0.0129545 74.6707 0.970478 79.8644C2.87382 90.2636 14.3447 96.8201 25.4325 103.194C31.391 106.609 38.1483 110.479 39.8387 113.439C41.0581 115.571 41.4387 117.367 40.9968 118.918C39.6993 123.466 31.702 127.811 24.6476 131.646C16.2806 136.187 8.37226 140.476 5.5307 147.282C-1.68698 164.566 15.89 181.94 27.4225 189.453C27.7937 189.702 28.1967 189.9 28.6209 190.041C29.4929 190.329 30.4253 190.383 31.3246 190.196C32.2239 190.01 33.0583 189.591 33.7441 188.98C34.4298 188.369 34.9428 187.588 35.2315 186.717C35.5202 185.845 35.5745 184.912 35.3888 184.013L35.4168 184.022Z" fill="#FA7268"></path></svg>