<svg xmlns="http://www.w3.org/2000/svg" width="126" height="120" viewBox="0 0 126 120" fill="none"><path d="M124.731 89.0056C122.961 78.9284 119.473 70.7592 114.376 64.7129C111.547 61.3029 108.044 58.5169 104.087 56.5304C100.13 54.544 95.8054 53.4001 91.3853 53.171C74.5916 51.9483 65.5107 65.3846 58.2272 76.1739C56.2864 79.1723 54.1817 82.0611 51.9228 84.827C47.7512 89.6774 42.1712 92.1498 36.9936 91.4377C32.3794 90.7927 28.5297 87.6485 26.1555 82.5561C23.2045 76.268 25.6055 68.7841 28.1407 60.8567C28.3687 60.1177 28.6102 59.3787 28.8382 58.6397C29.3882 56.9064 30.3003 54.5417 31.3734 51.7872C34.056 45.0691 37.2887 36.6042 38.6032 28.4215C40.4275 16.9604 37.8118 8.65681 30.81 3.75257C24.0362 -1.00387 15.4918 -1.24573 6.78643 3.06731C0.374771 6.3844 -5.21618 11.0943 -9.57802 16.8529C-12.9065 21.5272 -15.8408 26.4709 -18.3504 31.6328C-20.7537 36.7732 -23.7183 41.6308 -27.1899 46.117C-37.6524 58.5858 -51.3342 65.3444 -64.6001 64.6726C-65.5119 64.5918 -66.4305 64.6961 -67.301 64.9794C-68.1716 65.2628 -68.976 65.7194 -69.6662 66.3216C-70.3564 66.9238 -70.9181 67.6594 -71.3177 68.4843C-71.7173 69.3092 -71.9465 70.2063 -71.9917 71.122C-72.0369 72.0378 -71.897 72.9532 -71.5806 73.8135C-71.2641 74.6739 -70.7775 75.4614 -70.1499 76.1288C-69.5224 76.7962 -68.7667 77.3299 -67.9284 77.6978C-67.09 78.0657 -66.1861 78.2604 -65.2708 78.2701C-47.6857 79.1568 -30.0068 70.6248 -16.7945 54.8775C-12.3144 49.503 -9.2561 43.6179 -6.29172 37.9075C-4.12462 33.4131 -1.59447 29.1036 1.27348 25.0221C4.34544 20.9643 8.26376 17.6262 12.7554 15.2405C14.3248 14.4612 19.0598 12.1232 22.9899 14.8642C29.3747 19.3519 22.1583 37.9075 18.6842 46.8157C17.5172 49.7986 16.5246 52.3649 15.8405 54.5416L15.1833 56.6108C12.2726 65.7475 8.6375 77.1012 13.8419 88.2398C18.1745 97.5108 25.9141 103.544 35.1425 104.82C36.3427 104.986 37.5526 105.071 38.7642 105.075C43.2627 104.96 47.6841 103.878 51.7292 101.903C55.7743 99.9283 59.3488 97.106 62.211 93.6276C64.8187 90.4605 67.2416 87.1453 69.4676 83.6983C76.6975 72.9493 82.0629 66.043 90.4061 66.6476C93.0149 66.7587 95.5719 67.4135 97.9138 68.5703C100.256 69.727 102.331 71.3603 104.007 73.3658C111.827 82.6502 113.289 99.7009 112.055 112.573C111.887 114.368 112.437 116.157 113.583 117.548C114.73 118.938 116.38 119.816 118.172 119.99C118.391 120.003 118.61 120.003 118.829 119.99C120.515 119.996 122.14 119.366 123.383 118.226C124.626 117.085 125.394 115.518 125.536 113.836C126.358 105.56 126.087 97.211 124.731 89.0056Z" fill="white"></path></svg>