<svg xmlns="http://www.w3.org/2000/svg" width="22" height="19" viewBox="0 0 22 19" fill="none"><path d="M20.6654 2.98785L14.1709 0.916366C13.8649 0.815425 13.5345 0.838563 13.2498 0.980901C12.965 1.12324 12.7482 1.37361 12.6452 1.679C12.5525 1.98773 12.5823 2.32335 12.7281 2.61514C12.874 2.90693 13.1246 3.13212 13.4272 3.24326L19.9195 5.31581C20.226 5.41671 20.5567 5.39346 20.8418 5.25095C21.1269 5.10843 21.344 4.85783 21.4473 4.55212C21.54 4.24339 21.5103 3.90777 21.3644 3.61598C21.2186 3.32419 20.9679 3.099 20.6654 2.98785Z" fill="#F2A4B1"></path><path d="M2.37255 13.7316L3.33834 8.7357C3.4275 8.42621 3.40146 8.09205 3.26514 7.79611C3.11587 7.50402 2.86174 7.28002 2.55642 7.17143C2.25084 7.0657 1.91883 7.08647 1.63319 7.22917C1.48991 7.2978 1.36255 7.39574 1.25895 7.51696C1.15535 7.63817 1.07775 7.78009 1.0308 7.93404L0.0649518 12.9299C-0.0223583 13.2395 0.00441884 13.5729 0.140312 13.8684C0.288237 14.161 0.541787 14.3856 0.846877 14.4942C0.998581 14.5467 1.15841 14.5685 1.31719 14.5584C1.47597 14.5483 1.63061 14.5065 1.77226 14.4354C1.91545 14.3672 2.04266 14.2696 2.14595 14.1485C2.24923 14.0274 2.32637 13.8855 2.37255 13.7316Z" fill="#F2A4B1"></path><path d="M8.62672 7.93001C9.32342 9.73407 10.4753 11.3181 11.9671 12.5235C13.574 13.8097 15.9164 15.0597 17.998 14.2919C18.5272 14.1064 18.9956 13.7747 19.3504 13.3342C19.7053 12.8936 19.9325 12.3618 20.0064 11.7985C20.0526 11.2469 19.9675 10.6928 19.7584 10.1829C19.5493 9.67297 19.2223 9.22226 18.805 8.86876C17.0094 7.33214 14.2989 8.28282 13.0133 10.035C12.3072 11.0582 11.8297 12.225 11.6145 13.4535C11.3515 14.76 11.3036 16.1008 11.4728 17.4211C11.5175 17.7589 11.69 18.0651 11.9537 18.2748C12.2174 18.4846 12.5516 18.5814 12.8855 18.5449C13.218 18.4971 13.52 18.3204 13.728 18.0518C13.936 17.7832 14.0338 17.4436 14.0009 17.1044C13.9485 16.6661 13.9176 16.2253 13.9083 15.7836C13.8957 15.387 13.8876 16.0419 13.9084 15.6451C13.9264 15.5249 13.9189 15.4035 13.9293 15.2822C13.9452 15.0389 13.9711 14.7971 14.0042 14.559C14.0705 14.1167 14.1611 13.6833 14.2647 13.2492C14.345 12.9188 14.2019 13.4281 14.2681 13.2263C14.2962 13.1416 14.3189 13.0587 14.3491 12.977C14.4225 12.7589 14.5069 12.5446 14.602 12.3352C14.6817 12.1593 14.77 11.9876 14.8668 11.8207C14.7104 12.0927 14.8886 11.7953 14.9181 11.7527L15.0408 11.5854C15.1045 11.5035 15.1707 11.4219 15.24 11.3538C15.2767 11.3149 15.5225 11.0982 15.2989 11.2869C15.4076 11.196 15.6047 10.9615 15.757 10.9399L15.6392 11.0059C15.6952 10.9751 15.7512 10.9442 15.8094 10.9163C15.8676 10.8885 15.9553 10.8519 16.0289 10.8238C16.0988 10.7841 16.1751 10.7575 16.2541 10.7451L16.1178 10.7796C16.1791 10.7652 16.2429 10.7512 16.3034 10.742C16.3639 10.7328 16.4892 10.7202 16.5831 10.7107C16.8449 10.6793 16.5278 10.7024 16.5228 10.7017C16.616 10.6972 16.709 10.7112 16.7969 10.7427C16.8594 10.7482 16.9215 10.7575 16.9829 10.7706C16.8036 10.715 16.7838 10.7094 16.9226 10.7615C16.9731 10.7848 17.0307 10.8118 17.0841 10.8328C17.3271 10.9267 16.8897 10.6547 17.0841 10.8328C17.1095 10.8523 17.2825 10.9671 17.2779 10.9978C17.2868 10.939 17.1079 10.7946 17.2528 10.994C17.2958 11.0501 17.333 11.1106 17.3757 11.1692C17.5394 11.3976 17.2898 10.9185 17.3734 11.1846C17.4081 11.2617 17.4374 11.3411 17.4611 11.4225C17.4611 11.4225 17.41 11.1116 17.4611 11.4225L17.469 11.5073C17.476 11.6495 17.4781 11.6185 17.4835 11.4102L17.4453 11.6658C17.3852 11.6203 17.5556 11.3922 17.4594 11.5712L17.4274 11.6475C17.3664 11.769 17.382 11.7505 17.4743 11.5918C17.431 11.6721 17.3741 11.7441 17.3062 11.8044L17.4115 11.7026C17.3779 11.7324 17.3427 11.7612 17.306 11.7888C17.2423 11.8367 17.0913 11.9866 17.3236 11.7914C17.2192 11.8544 17.1073 11.9035 16.9907 11.9376C16.7167 12.0508 17.1761 11.9183 16.9907 11.9376C16.9151 11.9446 16.843 11.9625 16.767 11.972C16.691 11.9815 16.3944 11.9711 16.6647 11.9854C16.5491 11.9681 16.4336 11.9665 16.318 11.9492C16.2023 11.9319 16.1621 11.9259 16.0867 11.9146C16.0489 11.9089 15.6889 11.7897 15.9584 11.8954C15.7412 11.8184 15.5272 11.7367 15.3172 11.6451C14.992 11.4997 14.6777 11.3324 14.3624 11.1545C14.0472 10.9766 14.5962 11.3098 14.3131 11.1236C14.2312 11.0695 14.1489 11.018 14.08 10.9632C13.9191 10.8529 13.7645 10.7356 13.6177 10.6169C13.2703 10.3743 12.9539 10.089 12.6755 9.76746C12.6993 9.79716 12.8564 9.96708 12.7001 9.79207C12.6118 9.6952 12.526 9.59871 12.4417 9.49199C12.3175 9.3427 12.1933 9.1934 12.0786 9.03245C11.8259 8.68667 11.6031 8.31922 11.4128 7.93422C11.5605 8.21774 11.4127 7.93423 11.3881 7.87565C11.3635 7.81707 11.3012 7.70059 11.2607 7.61088C11.1633 7.40287 11.0667 7.18974 10.993 6.97745C10.8658 6.66191 10.6215 6.41026 10.3128 6.27654C10.0041 6.14283 9.65543 6.1377 9.34177 6.26227C9.03229 6.39525 8.78512 6.64481 8.65231 6.95843C8.51951 7.27205 8.51145 7.6252 8.62984 7.94349L8.62672 7.93001Z" fill="#F2A4B1"></path></svg>