<svg xmlns="http://www.w3.org/2000/svg" width="19" height="12" viewBox="0 0 19 12" fill="none"><path d="M2.60849 8.95221C2.54077 6.79117 2.61673 4.62808 2.83595 2.47679C2.90316 1.81323 2.19227 1.17764 1.54343 1.2056C1.20352 1.21459 0.880056 1.35141 0.639614 1.58788C0.399173 1.82435 0.260051 2.14249 0.250912 2.47679C0.0316923 4.62808 -0.0442672 6.79117 0.0234597 8.95221C0.0281408 9.28792 0.165789 9.60858 0.407176 9.84599C0.648562 10.0834 0.974637 10.2188 1.31598 10.2234C1.65732 10.2188 1.98333 10.0834 2.22471 9.84599C2.4661 9.60858 2.60381 9.28792 2.60849 8.95221Z" fill="#F2A4B1"></path><path d="M9.08665 11.8276C10.7676 10.8714 12.1636 9.49759 13.1348 7.84373C14.1688 6.06407 15.0581 3.56237 13.9905 1.61746C13.7286 1.12158 13.3312 0.707478 12.843 0.421793C12.3547 0.136108 11.7951 -0.00979923 11.2271 0.000510936C10.6747 0.0365565 10.1393 0.202744 9.66602 0.48505C9.19271 0.767356 8.7954 1.1575 8.50761 1.62255C7.25387 3.62594 8.59551 6.16576 10.5188 7.17763C11.6352 7.72445 12.8599 8.02385 14.1068 8.05475C15.4378 8.12138 16.7709 7.97017 18.0515 7.60729C18.379 7.513 18.6563 7.29707 18.8247 7.00523C18.993 6.71339 19.0393 6.36855 18.9537 6.04373C18.8572 5.72195 18.6377 5.44946 18.3413 5.28353C18.0448 5.1176 17.6945 5.07113 17.3639 5.1539C16.9382 5.27066 16.5068 5.36654 16.0714 5.44119C15.6811 5.51237 16.3299 5.42339 15.9344 5.46152C15.8129 5.46152 15.694 5.48695 15.5725 5.49458C15.3295 5.51491 15.0865 5.52508 14.8461 5.52763C14.3989 5.52763 13.9568 5.5022 13.5122 5.46407C13.1736 5.43356 13.6984 5.49966 13.489 5.46407C13.4011 5.44881 13.3158 5.43865 13.2305 5.42085C13.0039 5.3806 12.7795 5.32883 12.5583 5.26576C12.3726 5.21307 12.1896 5.15112 12.0103 5.08017C12.3024 5.19457 11.9819 5.06238 11.9354 5.0395L11.7518 4.94288C11.6613 4.89204 11.5708 4.83864 11.4933 4.78017C11.4493 4.74966 11.1986 4.53864 11.4184 4.73186C11.3124 4.6378 11.0513 4.47763 11.0073 4.33017L11.0901 4.43695C11.0513 4.3861 11.0125 4.33526 10.9763 4.28187C10.9401 4.22848 10.891 4.14712 10.8522 4.07847C10.8026 4.01522 10.765 3.94376 10.7411 3.86746L10.7953 3.99712C10.7721 3.93865 10.7488 3.87763 10.7307 3.81915C10.7126 3.76068 10.6816 3.63864 10.6583 3.54712C10.5885 3.29288 10.6583 3.60305 10.6583 3.60814C10.6401 3.51663 10.6401 3.42253 10.6583 3.33102C10.6545 3.26837 10.6545 3.20553 10.6583 3.14288C10.6299 3.32847 10.6273 3.34882 10.6583 3.2039C10.6738 3.15051 10.692 3.08949 10.7049 3.03356C10.7618 2.77932 10.5575 3.2522 10.7049 3.03356C10.7204 3.00559 10.8083 2.81746 10.8393 2.81746C10.7799 2.81746 10.6635 3.01576 10.8393 2.84288C10.8884 2.79203 10.9427 2.74628 10.9944 2.69543C11.196 2.49967 10.7592 2.81746 11.0099 2.69543C11.081 2.64967 11.1553 2.60889 11.2322 2.57339C11.2322 2.57339 10.9323 2.67 11.2322 2.57339L11.3149 2.55305C11.4545 2.52508 11.4235 2.52762 11.2167 2.55305H11.4752C11.439 2.61915 11.1883 2.4844 11.3795 2.55305L11.4597 2.57339C11.589 2.61576 11.5683 2.60305 11.3977 2.53526C11.4835 2.56618 11.5632 2.6118 11.6329 2.67L11.5166 2.58102C11.551 2.60983 11.5847 2.64034 11.6174 2.67254C11.6743 2.72847 11.8449 2.8556 11.6174 2.65475C11.6952 2.74871 11.7603 2.8521 11.8113 2.96237C11.9638 3.21661 11.7648 2.78187 11.8113 2.96237C11.8294 3.0361 11.8578 3.10475 11.8784 3.17848C11.8991 3.25221 11.9328 3.54712 11.9069 3.27763C11.9069 3.39457 11.9224 3.50898 11.9224 3.62593C11.9224 3.74288 11.9224 3.78356 11.9224 3.85983C11.9224 3.89797 11.8578 4.2717 11.9224 3.98949C11.8785 4.21577 11.8293 4.43949 11.7699 4.66068C11.6742 5.0039 11.5553 5.33949 11.4261 5.67763C11.2968 6.01576 11.545 5.42339 11.4028 5.73101C11.3615 5.82 11.3227 5.90898 11.2788 5.98525C11.1935 6.16068 11.1004 6.33101 11.0047 6.49373C10.8162 6.87321 10.581 7.22842 10.3042 7.55135C10.33 7.52339 10.4748 7.34288 10.3249 7.52339C10.2422 7.62509 10.1595 7.72424 10.0664 7.82339C9.93714 7.96831 9.80788 8.11322 9.6657 8.25051C9.36116 8.55165 9.03076 8.8264 8.6782 9.0717C8.9367 8.88356 8.67821 9.0717 8.62392 9.10475C8.56964 9.1378 8.46367 9.21661 8.38094 9.27C8.18965 9.39712 7.99318 9.52424 7.79414 9.62848C7.50093 9.8011 7.28823 10.0799 7.20171 10.405C7.1152 10.7302 7.16176 11.0757 7.33141 11.3675C7.50876 11.6538 7.79217 11.8613 8.122 11.9462C8.45183 12.0311 8.80228 11.9868 9.09953 11.8225L9.08665 11.8276Z" fill="#F2A4B1"></path></svg>