<svg xmlns="http://www.w3.org/2000/svg" width="27" height="22" viewBox="0 0 27 22" fill="none"><path d="M21.1886 19.139L20.5028 12.3567C20.4735 12.0358 20.3208 11.742 20.0768 11.5374C19.8329 11.3329 19.5169 11.2337 19.1958 11.2609C18.8756 11.2988 18.5796 11.4597 18.37 11.7096C18.1604 11.9596 18.0537 12.2792 18.0722 12.601L18.7561 19.3817C18.7856 19.703 18.9386 19.9971 19.1829 20.2019C19.4271 20.4067 19.7434 20.5061 20.065 20.4791C20.3851 20.4412 20.6811 20.2803 20.8907 20.0303C21.1003 19.7803 21.2071 19.4608 21.1886 19.139Z" fill="#1A00DE"></path><path d="M9.55059 16.2813L13.7302 11.2961C13.9379 11.0435 14.0407 10.7215 14.0164 10.3994C13.9922 10.0773 13.8428 9.78071 13.6005 9.57333C13.3532 9.37269 13.0356 9.27853 12.7147 9.31078C12.3939 9.34302 12.095 9.49914 11.8815 9.74609L7.70187 14.7313C7.49478 14.9841 7.39241 15.3059 7.41666 15.6278C7.44091 15.9497 7.58984 16.2463 7.83162 16.454C8.07912 16.6541 8.39666 16.7478 8.71733 16.7156C9.03799 16.6834 9.33672 16.5277 9.55059 16.2813Z" fill="#1A00DE"></path><path d="M4.04945 6.63681L9.01677 5.5335C9.33616 5.49206 9.63233 5.33512 9.84952 5.09223C10.058 4.839 10.1623 4.51669 10.1403 4.19338C10.1156 3.87097 9.9644 3.57468 9.71976 3.36949C9.59976 3.26538 9.45921 3.18755 9.30677 3.14078C9.15432 3.09402 8.99324 3.07934 8.83333 3.09757L3.86597 4.20084C3.54727 4.244 3.2521 4.40132 3.03507 4.64366C2.82562 4.89584 2.72058 5.21784 2.7424 5.54096C2.75465 5.70102 2.79828 5.85632 2.87077 5.99795C2.94325 6.13958 3.04317 6.26479 3.16482 6.36641C3.28434 6.47062 3.4246 6.54842 3.5768 6.59495C3.72901 6.64147 3.88991 6.65572 4.04945 6.63681Z" fill="#1A00DE"></path></svg>