<svg xmlns="http://www.w3.org/2000/svg" width="119" height="208" viewBox="0 0 119 208" fill="none"><path d="M103.85 177.645C98.0533 180.499 91.9584 182.703 85.6766 184.214L83.2577 184.755C85.4194 184.278 83.6329 184.628 83.2577 184.755C81.6168 184.986 79.9898 185.259 78.3348 185.448C75.0462 185.818 71.7391 185.993 68.4304 185.974C67.7764 185.964 67.1016 185.96 66.4406 185.929C66.4406 185.929 63.5391 185.799 65.2439 185.894C66.9487 185.989 64.1093 185.768 64.0605 185.761C63.4852 185.709 62.9007 185.629 62.3066 185.521C60.8795 185.286 59.4796 184.925 58.0593 184.641C57.5301 184.519 56.2061 183.902 58.2617 184.758C57.4743 184.422 56.6522 184.121 55.8994 183.75C55.1466 183.379 54.6444 183.063 53.996 182.726C52.6366 182.004 55.6649 184.293 53.9467 182.581C53.5697 182.221 53.137 181.904 52.767 181.566C52.3969 181.228 51.319 179.554 52.1176 180.952C52.9161 182.35 51.7954 180.412 51.6554 180.204C51.5155 179.997 51.1094 179.346 50.8295 178.931C49.5837 177.036 51.0477 179.576 51.0407 179.555C50.5875 179.315 50.191 177.525 50.0362 177.068C49.7842 175.937 49.4685 174.821 49.0907 173.726C50.072 175.596 49.3466 175.1 49.1541 173.914L48.9446 171.922C48.8847 170.853 48.8665 169.77 48.8762 168.701L48.9078 167.902L48.8816 168.304C48.8619 167.485 48.9689 166.667 49.199 165.88C49.3961 164.677 49.6415 163.412 49.9501 162.265L50.492 160.297C50.9239 158.691 50.2211 160.389 50.3473 160.625C50.0882 160.202 51.7324 157.305 51.9048 156.922C52.5533 155.544 53.2853 154.137 54.0177 152.87C54.7502 151.602 55.5726 150.258 56.3884 148.962C56.6304 148.579 57.5783 147.261 56.3884 148.962L57.4331 147.449C59.1833 144.933 61.0314 142.5 62.9001 140.06C67.0044 134.685 71.0601 129.303 74.7039 123.597C81.1132 113.501 85.3771 100.98 84.307 88.8978C83.8068 82.3184 81.5407 75.9973 77.7468 70.5983C73.9529 65.1993 68.7711 60.9213 62.7453 58.2139C51.5321 53.2267 39.2243 52.967 27.1791 54.0319C20.9482 54.635 14.7251 55.4674 8.46404 55.5012C7.19099 55.5151 5.92463 55.4801 4.65131 55.4245C7.14923 55.529 4.00433 55.3655 3.6841 55.3117C3.36387 55.2579 2.57029 55.1787 2.00644 55.0915C0.830015 54.9104 -0.45084 54.6955 -1.50952 54.3819C-1.98999 54.2664 -2.44956 54.1436 -2.91623 54.0004L-3.92624 53.6933C-4.70637 53.4476 -4.38588 53.5709 -2.97178 54.0424C-3.63875 54.2682 -6.07248 52.7748 -6.62983 52.5695C-7.81467 52.0204 -8.98568 51.4435 -10.1153 50.783L-11.3565 50.0677L-12.5837 49.3244L-11.4259 50.068C-11.9053 50.2303 -14.5241 47.7794 -14.88 47.4828C-15.7874 46.7239 -16.6808 45.9373 -17.5676 45.102L-18.6013 44.1076L-19.5998 43.0787C-20.2566 42.3741 -20.2566 42.3741 -19.5998 43.0787C-18.303 43.8216 -19.5999 43.0786 -20.0752 42.4979L-21.4178 40.7973C-22.1381 39.8361 -22.8094 38.9509 -23.4816 37.8574C-24.1537 36.764 -25.0287 35.415 -25.7084 34.162C-25.8826 33.7119 -26.106 33.282 -26.3744 32.8808C-25.673 34.3351 -25.4838 34.6882 -25.8417 33.9056L-26.1866 32.8868C-27.2359 30.4737 -28.0812 27.9767 -28.7135 25.4224L-29.0458 24.0288C-29.66 21.7339 -28.7588 26.249 -29.0458 24.0288C-29.2253 22.6064 -29.4393 21.219 -29.5284 19.7892C-29.6175 18.3594 -29.6071 17.4983 -29.6261 16.2069L-29.6151 15.4847C-29.5631 14.5401 -29.5631 14.5401 -29.6151 15.4847C-29.667 16.4292 -29.667 16.4292 -29.6151 15.4847L-29.4467 14.0602C-28.7039 8.36271 -31.8313 2.07548 -37.999 1.08121C-43.4984 0.208327 -50.2123 3.57051 -50.9885 9.65004C-52.2946 21.1207 -50.3396 32.7218 -45.3467 43.1259C-40.3538 53.5299 -32.5248 62.3166 -22.7559 68.4803C-12.7039 74.7432 -0.980224 77.8124 10.8665 77.283C17.2802 77.1511 23.6491 76.2694 30.0542 75.7001C32.9403 75.4415 35.8404 75.2246 38.7622 75.2088C39.9657 75.1954 41.107 75.2726 42.3592 75.2658C45.1005 75.3343 39.9369 74.9736 42.7418 75.2987C43.5493 75.4193 44.3427 75.4983 45.164 75.5911C46.4866 75.7922 47.8025 76.0417 49.0907 76.3472C49.6199 76.4693 50.1282 76.5983 50.6436 76.7483C51.159 76.8982 53.2489 77.5818 51.563 76.9938C49.8771 76.4058 52.3015 77.3227 52.4547 77.3635L53.8764 77.9945C54.5734 78.3379 55.2428 78.7371 55.9399 79.0805C57.8845 80.0212 54.3486 77.7422 56.1631 79.1905C57.182 80.0042 58.1384 80.8392 59.0948 81.6742C60.6657 83.089 58.968 81.3 58.7939 81.2662C59.3976 81.834 59.8928 82.5067 60.2557 83.2512C60.5705 83.7008 60.8229 84.1715 61.1239 84.649C62.5102 86.8911 60.5749 83.0272 61.1239 84.649C61.4411 86.082 61.9131 87.4763 62.5317 88.8073C61.8622 88.4082 62.203 86.6011 62.5317 88.8073C62.6178 89.4734 62.6901 90.1671 62.7136 90.8544C62.8593 92.2319 62.8625 93.621 62.723 94.9995C62.7704 94.659 62.9779 92.5955 62.6244 94.7082L62.2988 96.8348C62.0297 98.3875 61.6734 99.9242 61.2316 101.437C61.2316 101.437 60.3729 104.184 60.9023 102.591C61.4317 100.999 60.496 103.656 60.4684 103.711C59.9379 105.027 59.3588 106.404 58.7097 107.644C58.0606 108.883 57.405 110.171 56.6864 111.411L55.7254 112.965C55.3037 113.641 54.1901 115.292 55.276 113.696C48.1036 124.351 39.2016 133.877 33.3125 145.372C27.08 156.993 25.6117 170.569 29.2176 183.235C31.6342 190.844 36.6756 197.348 43.4469 201.592C50.1493 205.882 57.981 207.193 65.8023 207.651C81.4856 208.458 97.1216 205.254 111.229 198.344C116.395 195.831 120.471 190.442 118.131 184.421C116.198 179.467 109.731 174.843 104.19 177.553L103.85 177.645Z" fill="#FFF1ED"></path></svg>