<svg xmlns="http://www.w3.org/2000/svg" width="65" height="34" viewBox="0 0 65 34" fill="none"><path d="M54.5925 1.45717L54.3924 2.03156L54.2906 2.31712L54.3229 2.22489L54.2643 2.38858C54.1303 2.75561 53.9906 3.12182 53.8451 3.48722C53.5501 4.22963 53.2361 4.96345 52.9029 5.68868C52.6398 6.26492 52.8083 7.0334 53.4168 7.30434C53.9854 7.55877 54.7576 7.37684 55.0396 6.75858C55.7578 5.18351 56.3924 3.57276 56.9406 1.93327C57.009 1.62395 56.9541 1.30244 56.7878 1.03768C56.6151 0.766482 56.3407 0.57708 56.0248 0.511037C55.3269 0.398723 54.7947 0.799086 54.5873 1.45236L54.5925 1.45717Z" fill="#1A00DE"></path><path d="M3.73588 28.0692C3.46221 28.0079 3.18095 27.9872 2.90119 28.0076C2.71905 28.0229 2.53823 28.0512 2.36016 28.0922C2.1746 28.146 1.99372 28.2146 1.8192 28.2972C1.5697 28.4139 1.33743 28.5639 1.12879 28.7432C0.986768 28.8529 0.858734 28.9794 0.747516 29.1199C0.567421 29.3271 0.415814 29.5572 0.29668 29.8042C0.139849 30.1441 0.0422494 30.5081 0.00811416 30.8806C-0.0143848 31.1679 0.00998186 31.457 0.0802555 31.7365C0.148067 32.0329 0.264736 32.3161 0.42549 32.5746C0.706688 33.0471 1.12151 33.4269 1.61824 33.6664C2.10102 33.9067 2.63751 34.0205 3.17686 33.997C3.71405 33.9759 4.23592 33.8132 4.68906 33.5254C4.95077 33.3511 5.18226 33.1356 5.37438 32.8873C5.56635 32.6378 5.71843 32.3603 5.82521 32.0646C6.01828 31.5125 6.05216 30.9177 5.92308 30.3475C5.80504 29.7777 5.51363 29.2579 5.08839 28.8585C4.84328 28.6226 4.51736 28.488 4.1764 28.4818C3.83479 28.4849 3.50775 28.62 3.26441 28.8585C3.02362 29.0987 2.88837 29.424 2.8883 29.7632C2.891 30.1026 3.0258 30.4278 3.26441 30.6704C3.33232 30.732 3.39526 30.7989 3.45253 30.8703L3.249 30.614C3.33551 30.7277 3.40731 30.8517 3.46279 30.9831L3.33398 30.6756C3.39081 30.821 3.43141 30.9723 3.45505 31.1266L3.4087 30.7858C3.42972 30.956 3.42972 31.1281 3.4087 31.2983L3.45505 30.9575C3.43294 31.1121 3.3923 31.2635 3.33398 31.4085L3.46279 31.1035C3.40672 31.2347 3.33497 31.3586 3.249 31.4726L3.45253 31.2163C3.37169 31.3189 3.2782 31.4111 3.17428 31.4905L3.4319 31.2906C3.3287 31.3669 3.21722 31.4313 3.09956 31.4828L3.40612 31.3547C3.25219 31.4191 3.09012 31.4623 2.9244 31.4828L3.26699 31.4393C3.09585 31.4595 2.9229 31.4595 2.75175 31.4393L3.09441 31.4854C2.94157 31.4603 2.79207 31.4182 2.64873 31.3598L2.95528 31.4905C2.81395 31.4303 2.68067 31.3528 2.55853 31.2599L2.81616 31.4598C2.71207 31.3776 2.61866 31.2829 2.53797 31.1779L2.73892 31.4341C2.64973 31.3126 2.57534 31.181 2.51734 31.042L2.64615 31.3496C2.59223 31.2097 2.55338 31.0645 2.53023 30.9165L2.57659 31.2573C2.55984 31.1211 2.55984 30.9834 2.57659 30.8473L2.53023 31.1881C2.55083 31.0545 2.58712 30.9237 2.63841 30.7986L2.5096 31.1035C2.57697 30.9522 2.66355 30.8101 2.76722 30.6807L2.56627 30.9369C2.67749 30.7964 2.80552 30.6699 2.94754 30.5602L2.68992 30.7601C2.82255 30.6628 2.9661 30.5811 3.11761 30.5167L2.811 30.6448C2.94989 30.5886 3.09532 30.5499 3.24385 30.5295L2.90119 30.5756C3.03722 30.5589 3.1748 30.5589 3.31083 30.5756L2.96817 30.5295H3.05063C3.38567 30.6126 3.73985 30.5668 4.04243 30.4013C4.33165 30.23 4.54376 29.9548 4.63497 29.6325C4.67972 29.4677 4.69135 29.2957 4.66925 29.1264C4.64715 28.9571 4.59174 28.7938 4.50616 28.6458C4.33601 28.3563 4.05853 28.1446 3.7333 28.0563L3.73588 28.0692Z" fill="#1A00DE"></path><path d="M57.9318 10.303C58.0793 10.597 58.2837 10.8586 58.5327 11.0719C58.7817 11.2851 59.0701 11.4456 59.3804 11.5437C59.9205 11.7023 60.4848 11.7515 61.0406 11.6884C62.0433 11.5872 63.1711 11.1217 63.6799 10.195C64.0019 9.65274 64.1031 9.00256 63.9624 8.37983C63.8032 7.72993 63.4313 7.1509 62.9078 6.73778C62.0017 6.00909 60.6163 6.00121 59.6474 6.56811C59.0745 6.88577 58.5957 7.35074 58.2584 7.91697C57.926 8.50477 57.702 9.15007 57.5973 9.82182C57.5834 9.9825 57.6009 10.1448 57.6488 10.2996C57.6968 10.4543 57.7743 10.5984 57.8769 10.7236C58.0812 10.9662 58.3679 11.1223 58.6788 11.1603C58.9933 11.1868 59.304 11.09 59.5467 10.8899C59.7894 10.6898 59.9455 10.4017 59.9827 10.0853C60.0006 9.98628 60.0918 9.72022 59.9827 10.0853C60.0075 10.0072 60.0216 9.92321 60.0454 9.8429C60.0913 9.69333 60.1452 9.54655 60.207 9.40316C60.2505 9.30313 60.3829 9.13324 60.1831 9.41404C60.2289 9.34773 60.2643 9.27009 60.3092 9.20156C60.3982 9.06327 60.4984 8.93274 60.6086 8.81127L60.3985 9.04064C60.5362 8.89606 60.6898 8.76786 60.8563 8.65841L60.5856 8.82978C60.7535 8.72792 60.9328 8.64628 61.1198 8.58649L60.8129 8.67819C60.9979 8.62197 61.1897 8.59028 61.3835 8.58399L61.0747 8.59099C61.1712 8.58999 61.2677 8.59607 61.3635 8.60916C61.4115 8.61669 61.5925 8.65721 61.3809 8.60125C61.1692 8.54528 61.3635 8.60912 61.3998 8.61398L61.4982 8.65737C61.6825 8.73383 61.2961 8.53026 61.3906 8.5995C61.4851 8.66875 61.5513 8.71068 61.6266 8.77799L61.3958 8.565C61.5004 8.66331 61.5936 8.77332 61.6736 8.89287L61.5015 8.6185C61.5742 8.7408 61.6334 8.87074 61.6779 9.00591L61.5829 8.69366C61.617 8.81223 61.639 8.93387 61.6486 9.05665L61.6362 8.74156C61.6374 8.8132 61.629 8.88117 61.627 8.95159C61.6232 9.12171 61.6541 8.79225 61.6655 8.80577C61.6769 8.81929 61.6289 8.92128 61.6243 8.93409C61.5396 9.15706 61.7799 8.70019 61.6456 8.90036C61.602 8.96556 61.5541 9.02758 61.502 9.08601L61.71 8.85764C61.5994 8.97375 61.4748 9.07537 61.3391 9.16019L61.6098 8.98876C61.4191 9.10368 61.2158 9.19624 61.0039 9.26469L61.3099 9.17083C61.0052 9.25924 60.6902 9.30839 60.3723 9.31716L60.6833 9.30917C60.5708 9.30963 60.4572 9.30786 60.345 9.29749C60.2905 9.29292 60.2318 9.28494 60.1784 9.27717C60.059 9.25672 59.9667 9.18648 60.2581 9.30236C60.2263 9.29012 59.9613 9.22639 59.9461 9.19318C59.931 9.15998 60.2342 9.38807 60.0593 9.24587C60.011 9.20903 59.9616 9.17542 59.9167 9.1344L60.1453 9.34837C60.0854 9.2892 60.0313 9.22433 59.9837 9.15468L60.1569 9.43133C60.1396 9.39914 60.1245 9.36587 60.1115 9.33172C59.819 8.76999 59.1175 8.41585 58.5216 8.71934C57.9712 9.00205 57.626 9.71791 57.9399 10.3207L57.9318 10.303Z" fill="#1A00DE"></path></svg>