<svg xmlns="http://www.w3.org/2000/svg" width="333" height="167" viewBox="0 0 333 167" fill="none"><path d="M323.74 191.763C322.264 191.356 320.72 191.247 319.2 191.441C317.68 191.636 316.212 192.13 314.884 192.897C292.725 205.56 253.999 217.546 238.091 198.724C232.746 192.406 232.346 174.051 231.938 159.328C231.39 135.692 230.818 111.249 215.915 97.3547C208.555 90.5139 198.781 87.3037 186.871 87.8677C172.915 88.5152 157.74 98.4131 140.151 109.863C122.563 121.312 100.501 135.682 88.2558 132.002C83.7744 130.658 80.0743 126.495 76.9365 119.267C72.6833 109.573 74.4362 95.8082 76.2346 81.1672C77.697 69.2327 79.2111 56.8782 77.669 45.1341C75.7211 30.2083 69.2428 19.0196 57.8447 10.9331C42.6131 0.0845904 24.6846 -2.0781 4.60836 4.4391C-11.3283 9.60979 -26.5029 19.4377 -39.9115 28.1159C-45.8447 31.9551 -51.4717 35.5872 -56.552 38.4307C-59.1347 40.0046 -61.008 42.5176 -61.7781 45.4414C-62.5482 48.3653 -62.1552 51.4722 -60.6816 54.1091C-59.208 56.746 -56.7685 58.7074 -53.8762 59.581C-50.9838 60.4547 -47.8638 60.1725 -45.172 58.7938C-39.4794 55.5362 -33.547 51.7672 -27.2487 47.6866C-14.4995 39.4453 -1.23207 30.859 11.7848 26.6271C24.8016 22.3953 35.1619 23.4621 44.3242 29.9715C56.9269 38.9117 56.0318 54.2164 53.0689 78.3536C50.9843 95.4447 48.7992 113.119 55.5301 128.585C61.4758 142.303 70.227 150.969 81.5294 154.347C104.145 161.138 128.881 144.986 152.861 129.411C165.729 121.03 180.316 111.523 187.925 111.171C193.406 110.913 197.365 111.983 199.999 114.44C207.716 121.647 208.198 141.978 208.627 159.913C209.121 181.178 209.582 201.274 220.213 213.85C247.214 245.79 299.683 228.493 326.382 213.191C327.256 212.706 328.061 212.106 328.775 211.406C330.237 209.964 331.294 208.163 331.841 206.185C332.388 204.206 332.405 202.119 331.89 200.134C331.375 198.148 330.347 196.334 328.908 194.872C327.469 193.411 325.671 192.355 323.693 191.809L323.74 191.763Z" fill="#1A00DE"></path></svg>