<svg xmlns="http://www.w3.org/2000/svg" width="172" height="218" viewBox="0 0 172 218" fill="none"><path d="M104.755 176.79C116.274 150.664 117.267 119.304 107.488 90.5149C121.494 89.8021 135.49 92.0751 148.55 97.1831C152.308 98.6919 155.954 100.465 159.46 102.49C161.306 103.453 163.452 103.664 165.45 103.082C167.449 102.5 169.145 101.168 170.185 99.3651C171.225 97.5621 171.528 95.427 171.031 93.4057C170.535 91.3843 169.277 89.6327 167.52 88.5168C163.357 86.1222 159.032 84.0224 154.576 82.2327C137.522 75.4917 119.103 72.9277 100.856 74.7549C97.3107 67.6964 93.066 61.0115 88.1861 54.8004C71.526 33.9501 51.5386 15.9927 29.0298 1.65229C27.2312 0.626844 25.1074 0.331568 23.0973 0.827595C21.0872 1.32362 19.3444 2.57305 18.2293 4.3175C17.1142 6.06195 16.712 8.16807 17.1057 10.2007C17.4995 12.2333 18.6591 14.0371 20.3449 15.239C41.3408 28.6051 59.9851 45.347 75.525 64.789C78.7027 68.8249 81.5665 73.0982 84.0916 77.5714C65.0552 81.9964 47.552 91.4407 33.4022 104.922C27.2128 110.931 12.0119 127.184 4.45654 148.287C-2.99735 169.073 -0.287493 187.426 12.3074 201.363L13.2202 202.357C14.5403 203.759 15.9347 205.089 17.3977 206.341C22.5751 210.856 28.6989 214.154 35.3186 215.992C41.9384 217.829 48.8858 218.159 55.65 216.958C75.9622 213.525 95.6813 197.358 104.755 176.79ZM25.0037 191.383L24.2663 190.581C15.8142 181.214 14.2754 168.839 19.6414 153.791C24.1095 141.354 33.4861 127.382 44.662 116.546C57.537 104.279 73.655 95.9548 91.1108 92.5572C93.8915 100.044 95.8573 107.809 96.9741 115.717C99.7763 134.191 97.363 153.08 90.0061 170.256C83.0642 185.804 67.9115 198.527 52.9702 201.077C42.4052 202.911 32.7129 199.582 25.0247 191.358L25.0037 191.383Z" fill="#F39E3D"></path></svg>