<svg xmlns="http://www.w3.org/2000/svg" width="32" height="71" viewBox="0 0 32 71" fill="none"><path d="M31.7304 67.8299C31.5937 67.5909 31.4117 67.3821 31.1949 67.2154C30.9781 67.0486 30.7309 66.9273 30.4677 66.8586C26.0905 65.6966 19.6977 62.3567 20.0141 57.9203C20.1196 56.4306 22.3433 54.0113 24.1159 52.0598C26.9753 48.9404 29.9315 45.7137 29.7645 42.0401C29.6796 40.2286 28.8387 38.5809 27.2595 37.1508C25.4108 35.4734 22.2613 34.8358 18.6137 34.0939C14.9661 33.3521 10.3898 32.4225 9.29402 30.4025C8.89264 29.6636 8.93952 28.6595 9.43759 27.3307C10.0997 25.543 12.0275 23.9878 14.0696 22.3253C15.7337 20.9696 17.4564 19.5663 18.7162 17.8561C20.3188 15.6842 20.8843 13.4228 20.4419 10.9409C19.8559 7.61885 17.852 5.07741 14.5003 3.3851C11.84 2.04138 8.69927 1.39486 5.92476 0.822809C4.69717 0.569559 3.53404 0.328239 2.53791 0.054133C2.0156 -0.0686567 1.46682 0.0192599 1.00693 0.299411C0.547043 0.579562 0.211872 1.0301 0.0718777 1.55635C-0.0681162 2.0826 -0.00202457 2.64355 0.256251 3.12127C0.514526 3.599 0.944868 3.95628 1.45682 4.11803C2.58186 4.41597 3.80066 4.67816 5.10442 4.94631C7.74123 5.49155 10.4865 6.05764 12.6604 7.15407C14.8343 8.25049 16.015 9.69551 16.3695 11.6917C16.8588 14.4358 14.8489 16.2979 11.4826 19.039C9.10066 20.9815 6.63377 22.9867 5.57025 25.832C4.62393 28.3526 4.65909 30.5753 5.6728 32.4374C7.69729 36.1676 12.8332 37.2045 17.8022 38.2205C20.4712 38.7627 23.4977 39.3764 24.5055 40.2911C25.2321 40.9496 25.6013 41.5872 25.6306 42.2367C25.7155 44.1405 23.2574 46.825 21.0894 49.1937C18.517 52.0003 16.0853 54.6519 15.8743 57.6164C15.3382 65.1454 24.1305 69.5341 29.41 70.9285C29.5809 70.9762 29.7573 71.0003 29.9344 71C30.2984 70.9984 30.6555 70.8995 30.97 70.7132C31.2844 70.5269 31.5452 70.2597 31.726 69.9384C31.9068 69.6172 32.0013 69.2533 32 68.8832C31.9987 68.5131 31.9017 68.1498 31.7187 67.8299H31.7304Z" fill="#1A00DE"></path></svg>