<svg xmlns="http://www.w3.org/2000/svg" width="43" height="58" viewBox="0 0 43 58" fill="none"><path d="M27.5776 46.4483C30.5739 39.6524 30.8322 31.4951 28.2885 24.0067C31.9315 23.8213 35.5723 24.4126 38.9694 25.7413C39.9468 26.1337 40.8951 26.595 41.8072 27.1218C42.2873 27.372 42.8455 27.4272 43.3653 27.2757C43.8851 27.1242 44.3263 26.7778 44.5968 26.3088C44.8673 25.8398 44.9463 25.2845 44.8171 24.7587C44.6879 24.2329 44.3607 23.7773 43.9037 23.487C42.821 22.8642 41.696 22.318 40.5369 21.8524C36.1008 20.099 31.3097 19.4321 26.5634 19.9073C25.6412 18.0713 24.5371 16.3325 23.2677 14.7169C18.9342 9.29338 13.7352 4.62238 7.88028 0.892212C7.41243 0.625478 6.85999 0.548672 6.33713 0.677696C5.81427 0.80672 5.36095 1.13172 5.0709 1.58547C4.78085 2.03923 4.67623 2.58707 4.77864 3.11578C4.88105 3.6445 5.18268 4.11368 5.62119 4.42632C11.0825 7.90306 15.9322 12.2579 19.9744 17.315C20.801 18.3648 21.5459 19.4764 22.2027 20.6399C17.251 21.791 12.6982 24.2476 9.0176 27.7543C7.40765 29.3172 3.45366 33.545 1.48838 39.0342C-0.450488 44.4409 0.254387 49.2147 3.53051 52.84L3.76795 53.0987C4.11134 53.4633 4.47404 53.8092 4.85459 54.1348C6.20129 55.3095 7.7942 56.1673 9.51609 56.6452C11.238 57.1232 13.0451 57.2091 14.8046 56.8967C20.0881 56.0035 25.2174 51.7982 27.5776 46.4483ZM6.83301 50.2441L6.64121 50.0355C4.44269 47.5989 4.04243 44.3802 5.4382 40.4659C6.60043 37.2309 9.03942 33.5965 11.9464 30.7779C15.2954 27.5871 19.488 25.4218 24.0285 24.538C24.7518 26.4854 25.2631 28.5051 25.5536 30.5621C26.2825 35.3675 25.6548 40.2809 23.7412 44.7487C21.9354 48.7929 17.994 52.1024 14.1075 52.7656C11.3594 53.2427 8.83831 52.3769 6.83848 50.2377L6.83301 50.2441Z" fill="#F39E3D"></path></svg>