<svg xmlns="http://www.w3.org/2000/svg" width="422" height="403" viewBox="0 0 422 403" fill="none"><path d="M492.989 327.123C497.336 299.584 495.575 275.447 487.794 255.361C483.523 244.074 476.965 233.799 468.531 225.185C460.097 216.571 449.971 209.804 438.792 205.311C396.627 187.333 361.368 213.95 333.077 235.331C325.43 241.346 317.457 246.934 309.196 252.069C294.167 260.889 277.613 262.336 264.909 255.929C253.597 250.193 246.463 238.689 244.85 223.466C242.808 204.652 255.605 187.48 269.14 169.284C270.38 167.581 271.655 165.889 272.895 164.185C275.843 160.203 280.282 154.913 285.48 148.76C298.325 133.811 314.131 114.845 324.748 94.9135C339.575 66.9808 340.178 43.2673 326.482 24.4437C313.243 6.20249 291.454 -1.9648 265.225 1.46698C245.783 4.35659 227.224 11.5611 210.902 22.554C198.2 31.6641 186.275 41.8169 175.25 52.907C164.518 64.0354 152.591 73.9394 139.687 82.4384C101.725 105.342 60.5203 110.684 26.9533 97.2396C24.6769 96.2264 22.2191 95.6842 19.727 95.646C17.235 95.6078 14.76 96.0745 12.4505 97.0175C10.1409 97.9605 8.0443 99.3608 6.28628 101.134C4.52826 102.908 3.14507 105.018 2.21942 107.338C1.29377 109.659 0.844817 112.142 0.899419 114.639C0.954027 117.136 1.51105 119.596 2.53719 121.87C3.56332 124.145 5.03745 126.188 6.87118 127.876C8.70491 129.565 10.8605 130.865 13.2088 131.698C57.7079 149.509 110.773 143.125 158.713 114.198C175 104.3 188.076 91.8301 200.757 79.7277C210.309 70.0558 220.633 61.1813 231.625 53.1925C243.122 45.4448 256.162 40.2997 269.837 38.1158C274.567 37.4925 288.826 35.6465 296.524 46.1819C308.999 63.387 274.017 104.846 257.198 124.742C251.557 131.4 246.733 137.139 243.047 142.146L239.526 146.899C223.956 167.881 204.561 193.938 208.118 227.245C211.081 254.968 225.679 277.352 248.315 288.791C251.259 290.277 254.3 291.565 257.416 292.646C269.102 296.32 281.443 297.436 293.605 295.916C305.767 294.397 317.466 290.278 327.91 283.838C337.424 277.977 346.594 271.57 355.372 264.651C383.49 243.326 403.41 230.261 424.36 239.186C430.979 241.775 436.985 245.721 441.993 250.77C447.002 255.819 450.902 261.862 453.446 268.511C465.378 299.348 454.073 344.591 439.52 376.681C437.5 381.161 437.333 386.257 439.057 390.854C440.781 395.45 444.254 399.17 448.715 401.2C449.267 401.428 449.832 401.622 450.408 401.78C454.742 403.283 459.485 403.095 463.693 401.253C467.901 399.411 471.265 396.05 473.117 391.838C482.547 371.23 489.229 349.471 492.989 327.123Z" fill="#FFF0ED"></path></svg>