<svg xmlns="http://www.w3.org/2000/svg" width="327" height="281" viewBox="0 0 327 281" fill="none"><path d="M76.8188 177.609C122.308 193.965 175.357 191.946 222.762 172.058C225.66 195.601 223.518 219.482 216.477 242.116C214.385 248.633 211.833 254.992 208.84 261.146C207.439 264.374 207.341 268.019 208.566 271.321C209.791 274.624 212.243 277.329 215.412 278.871C218.581 280.413 222.222 280.673 225.573 279.597C228.925 278.522 231.729 276.193 233.399 273.097C236.937 265.793 239.958 258.25 242.439 250.521C251.752 220.957 253.851 189.581 248.559 159.013C260.043 152.201 270.811 144.253 280.704 135.288C313.878 104.727 341.767 68.8924 363.246 29.2306C364.759 26.0755 365.001 22.4578 363.92 19.1251C362.84 15.7924 360.52 12.9995 357.441 11.3238C354.362 9.64805 350.758 9.21758 347.375 10.1212C343.992 11.0248 341.088 13.1935 339.264 16.1791C319.246 53.174 293.246 86.5992 262.313 115.105C255.886 120.941 249.02 126.276 241.776 131.063C232.004 99.4692 213.946 71.0533 189.48 48.7701C178.59 39.0362 149.319 15.3063 112.788 5.04569C76.804 -5.08101 46.1568 1.65219 24.1583 24.5416L22.5905 26.1987C20.3845 28.5908 18.3088 31.0999 16.373 33.7154C9.37792 42.9816 4.55319 53.7011 2.25305 65.0851C-0.0470739 76.4692 0.236251 88.2285 3.08202 99.4984C11.3354 133.361 41.0079 164.724 76.8188 177.609ZM42.5386 44.785L43.803 43.4466C58.59 28.0845 79.2883 24.0311 105.335 31.3112C126.867 37.3842 151.583 51.5571 171.224 69.1348C193.486 89.4103 209.486 115.621 217.333 144.669C205.034 150.242 192.167 154.473 178.955 157.289C148.115 164.192 115.942 162.346 86.0619 151.957C58.981 142.077 35.6737 118.013 29.5621 93.107C25.1877 75.4996 29.6329 58.7565 42.5826 44.8176L42.5386 44.785Z" fill="#FFF0ED"></path></svg>