<svg xmlns="http://www.w3.org/2000/svg" width="264" height="479" viewBox="0 0 264 479" fill="none"><path d="M81.7417 478.119C109.556 478.487 132.991 473.72 151.423 463.983C161.799 458.605 170.791 451.268 177.834 442.436C184.876 433.604 189.816 423.468 192.342 412.666C202.884 371.793 170.745 343.064 144.933 320.015C137.724 313.815 130.88 307.263 124.433 300.387C113.217 287.811 108.993 272.877 113.143 260.433C116.868 249.348 126.972 241.325 141.667 237.859C159.821 233.532 178.871 242.977 199.053 252.961C200.938 253.871 202.817 254.814 204.702 255.724C209.117 257.897 215.07 261.26 221.999 265.203C238.872 274.983 260.195 286.941 281.591 294.032C311.565 303.923 334.984 301.371 351.175 286.396C366.87 271.914 371.213 250.939 363.399 227.426C357.267 210.042 347.042 194.029 333.471 180.556C322.363 170.143 310.362 160.577 297.592 151.956C284.833 143.608 273.077 134.007 262.536 123.33C233.591 91.6457 221.364 54.7007 228.902 22.2752C229.513 20.0629 229.631 17.7465 229.246 15.4648C228.862 13.1831 227.984 10.983 226.666 8.99649C225.348 7.00992 223.617 5.27769 221.575 3.90364C219.534 2.5296 217.225 1.54202 214.787 1.00001C212.348 0.457997 209.83 0.372763 207.384 0.749383C204.938 1.126 202.614 1.95672 200.551 3.1918C198.489 4.42688 196.73 6.04091 195.38 7.93713C194.03 9.83335 193.116 11.9727 192.695 14.2272C182.713 57.2115 197.971 104.856 234.528 144.868C247.017 158.452 261.491 168.767 275.537 178.768C286.664 186.23 297.137 194.5 306.853 203.498C316.416 212.987 323.683 224.227 328.144 236.435C329.558 240.674 333.786 253.46 324.73 261.871C309.924 275.519 263.238 248.985 240.829 236.222C233.327 231.94 226.868 228.284 221.321 225.572L216.051 222.977C192.785 211.497 163.882 197.188 131.734 204.796C104.977 211.131 85.438 227.396 78.0224 249.573C77.0587 252.457 76.307 255.403 75.7717 258.391C74.1368 269.548 75.1288 280.969 78.6813 291.881C82.2337 302.793 88.2638 312.942 96.363 321.642C103.737 329.567 111.588 337.105 119.877 344.22C145.604 367.117 161.822 383.606 156.592 403.914C155.166 410.3 152.303 416.303 148.186 421.54C144.069 426.776 138.788 431.13 132.68 434.324C104.379 449.26 57.9802 444.852 23.9637 435.755C19.217 434.495 14.1776 435.01 9.95011 437.187C5.72264 439.363 2.65205 443.023 1.41164 447.364C1.28027 447.898 1.18538 448.439 1.12752 448.986C0.382954 453.143 1.37072 457.451 3.89418 461.055C6.41763 464.658 10.2921 467.292 14.7462 468.432C36.6054 474.351 59.1311 477.608 81.7417 478.119V478.119Z" fill="#1A00DE"></path></svg>