<svg xmlns="http://www.w3.org/2000/svg" width="346" height="353" viewBox="0 0 346 353" fill="none"><path d="M96.4112 223.59C153.638 244.166 220.374 241.626 280.011 216.607C283.656 246.225 280.961 276.267 272.104 304.741C269.472 312.939 266.262 320.94 262.496 328.681C260.734 332.741 260.611 337.327 262.152 341.482C263.692 345.637 266.778 349.039 270.765 350.979C274.751 352.919 279.331 353.247 283.547 351.893C287.763 350.54 291.291 347.61 293.392 343.716C297.843 334.528 301.643 325.037 304.764 315.315C316.481 278.122 319.121 238.651 312.463 200.196C326.91 191.626 340.458 181.627 352.902 170.35C394.636 131.903 429.721 86.8225 456.742 36.9271C458.646 32.958 458.949 28.4068 457.59 24.2143C456.231 20.0217 453.313 16.5082 449.439 14.4001C445.565 12.2919 441.032 11.7504 436.776 12.8872C432.521 14.024 428.867 16.7523 426.572 20.5082C401.389 67.0484 368.681 109.098 329.767 144.959C321.681 152.301 313.044 159.012 303.931 165.034C291.637 125.289 268.92 89.5409 238.141 61.5082C224.442 49.2628 187.617 19.4101 141.661 6.5021C96.3926 -6.23747 57.8379 2.23302 30.1633 31.0283L28.191 33.1129C25.4159 36.1223 22.8045 39.2788 20.3693 42.5692C11.5694 54.2261 5.49977 67.7115 2.60618 82.0328C-0.287454 96.3542 0.0689821 111.148 3.64901 125.325C14.0319 167.925 51.3605 207.38 96.4112 223.59ZM53.2862 56.495L54.8767 54.8112C73.4791 35.4854 99.518 30.3861 132.286 39.5446C159.372 47.1845 190.466 65.0143 215.175 87.1274C243.181 112.634 263.309 145.608 273.181 182.151C257.708 189.162 241.521 194.485 224.901 198.027C186.103 206.711 145.628 204.388 108.039 191.32C73.971 178.89 44.65 148.617 36.9614 117.285C31.4584 95.1345 37.0506 74.0713 53.3415 56.5359L53.2862 56.495Z" fill="#FFF0ED"></path></svg>