<svg xmlns="http://www.w3.org/2000/svg" width="396" height="522" viewBox="0 0 396 522" fill="none"><path d="M197.276 453.048C237.881 398.133 256.691 325.526 249.028 253.3C282.064 258.939 313.509 271.535 341.279 290.254C349.249 295.731 356.818 301.767 363.931 308.316C367.729 311.522 372.622 313.135 377.589 312.818C382.555 312.502 387.211 310.282 390.585 306.619C393.958 302.957 395.789 298.137 395.694 293.165C395.599 288.193 393.586 283.453 390.076 279.935C381.629 272.182 372.647 265.031 363.196 258.535C326.971 233.926 285.364 218.346 241.85 213.095C237.295 194.788 230.912 176.988 222.799 159.961C194.913 102.659 157.746 50.3682 112.797 5.19647C109.142 1.86781 104.344 0.0721861 99.3957 0.180962C94.4471 0.289732 89.7258 2.2946 86.2078 5.78094C82.6898 9.26727 80.6441 13.9685 80.4932 18.9133C80.3423 23.8581 82.0978 28.6685 85.3971 32.3498C127.331 74.4611 162.004 123.218 188.019 176.652C193.306 187.719 197.738 199.177 201.274 210.923C154.552 211.318 108.766 224.215 68.6772 248.275C51.0831 259.058 7.08489 289.033 -21.6341 334.301C-49.9496 378.883 -53.283 423.09 -31.2415 462.153L-29.6357 464.948C-27.2943 468.904 -24.742 472.732 -21.9886 476.414C-12.29 489.642 0.256693 500.524 14.7278 508.259C29.199 515.995 45.227 520.386 61.6333 521.112C110.809 523.694 165.298 496.276 197.276 453.048ZM3.61609 445.501L2.31833 443.246C-12.4655 416.998 -9.54568 387.343 10.8828 355.051C27.8441 328.381 57.0597 300.69 88.8218 281.249C125.299 259.357 167.266 248.348 209.761 249.525C212.308 268.432 212.808 287.562 211.253 306.583C208.071 351.121 192.508 393.908 166.317 430.124C141.951 462.758 99.9221 484.526 63.7371 482.683C38.1341 481.453 17.282 468.638 3.67805 445.455L3.61609 445.501Z" fill="#FFF0ED"></path></svg>