<svg xmlns="http://www.w3.org/2000/svg" width="235" height="323" viewBox="0 0 235 323" fill="none"><path d="M157.53 0.370039C166.99 1.58004 175.28 11.3 175.07 20.37C174.86 29.44 166.49 38.55 157.07 40.11C151.48 41.03 145.89 40.9 140.28 41.11C118.69 41.84 97.2099 43.6401 75.9599 47.7601C59.4799 50.9501 42.96 54.02 26.42 56.84C19.7909 57.9724 12.9808 56.4921 7.41998 52.71C-2.58002 46.14 -2.33006 30.95 7.50994 23.29C15.2799 17.29 24.51 15.37 33.65 13.29C51.47 9.28996 69.42 5.80001 87.55 3.47002C99.3 1.96002 111.14 0.93003 122.98 0.36003C129.24 0.0700296 152.31 -0.289961 157.53 0.370039Z" fill="#FFF0ED"></path><path d="M70.5501 177.84C70.3101 169.71 74.43 163.94 79.19 158.57C89.46 147.03 102.67 139.31 115.58 131.34C131.34 121.63 147.24 112.13 163.88 103.94C169.513 101.152 175.445 99.0119 181.56 97.5599C190.15 95.5599 199.7 99.2899 203.84 106.72C207.04 112.47 207.53 123.12 200.32 130.06C191.98 138.06 181.92 143.48 172.32 149.52C153.85 161.11 135.24 172.52 116.59 183.76C108.97 188.37 101.12 192.49 92.1601 194.23C81.8701 196.22 69.0601 189.18 70.5501 177.84Z" fill="#FFF0ED"></path><path d="M164.13 302.81C164.842 292.9 167.41 283.212 171.7 274.25C179.27 258.41 187.25 242.78 195.14 227.1C200.55 216.37 209.89 211.74 220.21 214.48C229.64 216.99 236.36 228.05 234.57 237.7C233.035 245.338 230.486 252.737 226.99 259.7C219.5 275.17 212.58 291.01 202.11 304.85C196.7 312 191.11 318.93 182.11 321.94C174.84 324.39 169.47 322.07 166.59 314.94C165.1 311.06 163.87 307.08 164.13 302.81Z" fill="#FFF0ED"></path></svg>