<svg xmlns="http://www.w3.org/2000/svg" width="547" height="544" viewBox="0 0 547 544" fill="none"><path d="M8.29256 458.785C55.272 491.344 107.384 515.647 162.425 530.666C210.944 544.434 261.874 547.344 311.656 539.192C371.287 528.214 426.093 498.831 468.499 455.103C519.982 403.638 546.112 343.804 546.16 277.284C546.289 217.696 524.622 151.909 483.548 87.0822C465.459 58.2687 444.567 31.3488 421.18 6.72135C417.064 2.68755 411.545 0.438376 405.802 0.453574C400.059 0.468754 394.545 2.74716 390.438 6.80269C386.378 10.9481 384.111 16.546 384.133 22.3689C384.156 28.1917 386.466 33.7642 390.559 37.8652C411.847 60.5035 430.91 85.17 447.481 111.519C472.787 151.585 502.896 212.803 502.779 277.17C502.62 331.533 480.841 380.742 438.004 423.56C402.125 460.796 355.715 485.936 305.145 495.53C261.804 502.652 217.459 500.149 175.205 488.197C125.078 474.527 77.5734 452.519 34.6461 423.079C29.9519 419.941 24.2366 418.749 18.688 419.752C13.1394 420.755 8.18443 423.875 4.85212 428.464C1.51979 433.053 0.0664765 438.758 0.794599 444.393C1.52278 450.029 4.37601 455.161 8.76165 458.724L8.29256 458.785Z" fill="#FFE5E3"></path></svg>