<svg xmlns="http://www.w3.org/2000/svg" width="114" height="118" viewBox="0 0 114 118" fill="none"><path d="M80.7486 77.4442C72.5829 81.1721 63.2957 81.6982 54.6335 78.9237C32.8427 71.8301 26.6405 49.7814 33.4065 33.4149C39.3488 18.9866 53.6075 11.0187 70.5847 12.5694C73.8107 12.8547 77.0004 13.5307 80.0862 14.5828C90.8307 18.27 98.4609 26.3322 101.03 36.6875C103.598 47.0428 100.901 58.2996 93.5505 67.444C90.1088 71.7464 85.7299 75.167 80.7486 77.4442Z" fill="#FA7268"></path><path d="M8.08823 68.2866C10.172 73.4743 13.4927 86.3748 15.8881 91.3957C17.5884 94.9593 18.7673 98.5458 19.7543 102.375C20.2542 104.314 20.6449 107.213 21.7877 108.876C23.8579 111.889 28.0833 111.022 31.0764 110.318C38.0173 108.686 44.5201 106.598 51.1602 103.943C60.2417 100.312 69.6848 97.2947 78.5995 93.2677C83.8629 90.8901 92.9296 88.7024 94.4155 82.3392C95.0899 79.4509 93.7895 76.8153 92.9594 74.0416C91.2591 68.3604 88.0163 63.3758 85.3025 58.18C82.3787 52.5821 79.8292 45.663 74.6581 41.6101C73.1523 40.4299 70.7865 40.9018 69.0096 40.9018C63.0502 40.9018 57.6918 42.9797 52.1895 45.1012C43.5154 48.4454 34.8071 51.8399 26.5576 56.1562C22.7277 58.1601 13.8015 63.1175 7 66.3822" stroke="#1A00DE" stroke-width="13" stroke-linecap="round"></path><path d="M14.6182 67.6576C23.8526 71.1879 33.6785 71.7802 43.2672 73.9793C47.5331 74.9576 51.8472 76.0097 56.0452 77.2404C57.6613 77.7143 60.3758 71.0285 60.913 69.9655C64.6611 62.5483 67.2391 54.6282 71.2063 47.338" stroke="#1A00DE" stroke-width="13" stroke-linecap="round"></path></svg>