<svg xmlns="http://www.w3.org/2000/svg" width="59" height="59" viewBox="0 0 59 59" fill="none"><path d="M31.1669 51.9615L4.92774 43.9348C4.4914 43.7762 4.02628 43.7055 3.55966 43.727C3.09305 43.7485 2.63422 43.8617 2.20994 44.06C1.78565 44.2582 1.4044 44.5376 1.08845 44.8817C0.772506 45.2259 0.528186 45.628 0.369736 46.0646C0.211287 46.5011 0.141948 46.9634 0.165647 47.4244C0.189347 47.8854 0.305636 48.3359 0.507796 48.7497C0.709956 49.1634 0.993926 49.5321 1.34309 49.8342C1.69226 50.1363 2.09963 50.3657 2.54148 50.5092L28.7837 58.5421C29.2201 58.7007 29.6851 58.7714 30.1517 58.7499C30.6183 58.7284 31.0772 58.6152 31.5015 58.417C31.9258 58.2187 32.307 57.9393 32.6229 57.5952C32.9389 57.251 33.1832 56.8489 33.3417 56.4123C33.5001 55.9758 33.5695 55.5135 33.5458 55.0525C33.5221 54.5915 33.4058 54.141 33.2036 53.7272C33.0014 53.3135 32.7176 52.9448 32.3684 52.6427C32.0192 52.3406 31.6118 52.1112 31.1699 51.9677L31.1669 51.9615Z" fill="#F2A4B1"></path><path d="M37.3981 30.214C30.5948 22.7694 24.0475 15.1077 17.756 7.22901C17.4556 6.88597 17.0891 6.60575 16.6774 6.40431C16.2656 6.20287 15.8168 6.08412 15.3564 6.05494C14.896 6.02577 14.4331 6.08673 13.9942 6.23427C13.5553 6.3818 13.1489 6.61306 12.7982 6.91484C12.1144 7.53159 11.6921 8.38106 11.6182 9.28857C11.5442 10.1961 11.8242 11.0926 12.4006 11.7936C18.6921 19.6723 25.2394 27.334 32.0427 34.7786C32.6494 35.4713 33.5126 35.8936 34.4424 35.9525C35.3722 36.0114 36.2923 35.7022 37.0005 35.0927C37.7087 34.4833 38.1469 33.6236 38.2186 32.7028C38.2904 31.782 37.9898 30.8754 37.3831 30.1826L37.3981 30.214Z" fill="#F2A4B1"></path><path d="M58.1492 22.4679L50.8288 2.1366C50.2139 0.42411 47.7225 -0.30733 46.1514 0.527765C45.325 0.949718 44.6894 1.66704 44.3754 2.53197C44.0615 3.3969 44.0931 4.34361 44.4638 5.17728L51.7842 25.5086C52.4054 27.2181 54.8969 27.9495 56.4616 27.1175C57.288 26.6955 57.9236 25.9783 58.2375 25.1134C58.5514 24.2484 58.5199 23.3016 58.1492 22.4679Z" fill="#F2A4B1"></path></svg>