<svg xmlns="http://www.w3.org/2000/svg" width="665" height="222" viewBox="0 0 665 222" fill="none"><path d="M647.469 16.4083C644.553 15.7186 641.528 15.6164 638.569 16.108C635.609 16.5997 632.774 17.6755 630.224 19.2734C627.674 20.8713 625.459 22.9597 623.707 25.42C621.955 27.8803 620.701 30.6641 620.014 33.6112C617.942 42.5237 615.988 53.6485 614.156 65.1126C608.69 97.9463 601.223 142.862 583.445 164.088C581.09 167.264 578.121 169.924 574.716 171.905C571.312 173.887 567.545 175.147 563.646 175.612C541.433 177.626 529.118 167.131 504.303 104.266C491.57 72.115 478.43 38.8557 452.859 20.9937C417.678 -3.53302 380.913 -5.88231 343.597 13.8875C313.916 29.663 288.032 56.8288 262.932 83.1969C245.078 101.952 228.205 119.607 211.627 131.646C190.971 146.547 171.922 151.845 153.302 147.769C110.132 138.319 73.153 81.808 42.6098 27.7903C39.5061 22.7067 34.5628 19.0452 28.8237 17.5788C23.0846 16.1124 16.9988 16.9557 11.8508 19.9309C6.70283 22.906 2.8957 27.7802 1.23293 33.5243C-0.429853 39.2684 0.181839 45.433 2.93904 50.7169C18.1352 77.5735 36.5442 108.694 58.8272 134.843C86.3217 167.37 114.165 186.464 143.584 192.879C175.088 199.78 206.947 191.788 238.235 169.109C258.234 154.646 277.393 134.539 295.917 115.122C318.467 91.4518 341.797 66.9195 364.816 54.7366C386.807 43.087 405.956 44.3865 426.92 59.026C441.238 68.9997 451.797 95.7173 461.999 121.544C471.317 145.034 480.884 169.265 495.368 188.18C514.329 212.964 538.665 224.2 567.692 221.598C577.459 220.725 586.955 217.863 595.606 213.186C604.258 208.508 611.886 202.112 618.028 194.383C626.394 184.042 633.123 172.458 637.975 160.044C649.356 132.194 654.84 99.1996 659.137 72.4692C661.013 61.16 662.638 51.397 664.42 43.9387C665.757 38.011 664.727 31.7977 661.555 26.6445C658.382 21.4914 653.321 17.8138 647.469 16.4083Z" fill="#FFE5E3"></path></svg>