<svg xmlns="http://www.w3.org/2000/svg" width="314" height="348" viewBox="0 0 314 348" fill="none"><path d="M25.6684 -146.577C45.5603 -153.31 60.9075 -150.705 74.9647 -133.421C84.0308 -122.274 85.1884 -104.709 80.291 -91.4575C71.5788 -67.8837 47.8764 -51.4148 36.5476 -28.7393C27.3684 -10.3664 18.9755 13.8696 23.062 34.7727C30.2222 71.3983 71.4526 66.3919 98.6496 64.147C125.095 61.9642 177.506 54.3458 196.789 79.0043C211.928 98.3646 192.532 125.721 184.55 143.877C176.723 161.679 164.769 178.078 157.578 195.934C152.764 207.892 158.905 224.271 170.271 229.959C194.118 241.892 207.264 233.416 228.52 220.092C247.046 208.478 278.285 191.346 301.048 200.244C324.162 209.28 332.893 233.944 333.685 256.725C334.25 272.982 336.498 289.864 347.511 302.771C361.878 319.609 380.893 321.646 401 325" stroke="#FFE5E3" stroke-width="44" stroke-linecap="round"></path></svg>