<svg xmlns="http://www.w3.org/2000/svg" width="40" height="44" viewBox="0 0 40 44" fill="none"><path d="M9.32388 15.1126L22.1225 6.97273C22.3459 6.84641 22.5427 6.67639 22.7013 6.47264C22.8599 6.26889 22.9772 6.03544 23.0463 5.78597C23.1155 5.53649 23.1351 5.27597 23.104 5.01959C23.0729 4.76321 22.9917 4.51611 22.8653 4.2927C22.7388 4.0693 22.5695 3.87411 22.3673 3.71845C22.1651 3.56278 21.9341 3.44979 21.6876 3.38608C21.4412 3.32237 21.1843 3.30922 20.9319 3.34738C20.6795 3.38555 20.4368 3.47426 20.2178 3.60835L7.41541 11.7473C7.19201 11.8736 6.99528 12.0436 6.83668 12.2473C6.67807 12.4511 6.56077 12.6845 6.49163 12.934C6.4225 13.1835 6.4029 13.444 6.43399 13.7004C6.46508 13.9568 6.54624 14.2039 6.67272 14.4273C6.7992 14.6507 6.96845 14.8459 7.17064 15.0016C7.37283 15.1572 7.60392 15.2702 7.85036 15.3339C8.09681 15.3976 8.35368 15.4108 8.60604 15.3726C8.85839 15.3345 9.10117 15.2457 9.32017 15.1116L9.32388 15.1126Z" fill="white"></path><path d="M16.2221 25.5431C21.7937 25.3594 27.3647 25.3613 32.9349 25.5486C33.1869 25.5456 33.4363 25.4923 33.6689 25.3917C33.9014 25.2911 34.1126 25.1452 34.2902 24.9622C34.4679 24.7793 34.6085 24.5629 34.7043 24.3255C34.8 24.0881 34.8488 23.8343 34.848 23.5786C34.8345 23.0697 34.6294 22.5872 34.2747 22.2301C33.92 21.873 33.4428 21.6685 32.9412 21.6588C27.371 21.4715 21.8 21.4697 16.2283 21.6533C15.7193 21.6593 15.2318 21.8703 14.873 22.2397C14.5143 22.6092 14.3136 23.1068 14.3152 23.6233C14.3169 24.1398 14.5206 24.6327 14.8817 24.9937C15.2428 25.3546 15.7316 25.554 16.2406 25.548L16.2221 25.5431Z" fill="white"></path><path d="M12.0209 37.0443L23.1923 41.273C24.1326 41.6299 25.335 40.846 25.5486 39.8859C25.6682 39.3872 25.5951 38.8624 25.3446 38.4198C25.094 37.9772 24.6849 37.6504 24.2015 37.5066L13.0301 33.2779C12.0887 32.9247 10.8864 33.7087 10.6738 34.6649C10.5542 35.1637 10.6272 35.6884 10.8778 36.131C11.1283 36.5736 11.5375 36.9005 12.0209 37.0443Z" fill="white"></path></svg>