<svg xmlns="http://www.w3.org/2000/svg" width="43" height="46" viewBox="0 0 43 46" fill="none"><path d="M30.8563 30.614L16.9972 36.7775C16.7576 36.8695 16.5379 37.0086 16.351 37.1868C16.1641 37.3649 16.0137 37.5785 15.9085 37.8151C15.8033 38.0516 15.7455 38.3064 15.7385 38.5646C15.7314 38.8227 15.7752 39.0791 15.8674 39.3187C15.9595 39.5583 16.0982 39.7763 16.2752 39.9601C16.4522 40.1439 16.6641 40.2897 16.8985 40.3891C17.1328 40.4884 17.385 40.5393 17.6402 40.5388C17.8954 40.5383 18.1486 40.4863 18.385 40.386L32.2476 34.224C32.4872 34.132 32.7068 33.9929 32.8937 33.8148C33.0807 33.6367 33.2311 33.4231 33.3363 33.1865C33.4414 32.95 33.4992 32.6952 33.5063 32.437C33.5134 32.1789 33.4695 31.9225 33.3774 31.6829C33.2852 31.4433 33.1466 31.2252 32.9696 31.0414C32.7926 30.8576 32.5807 30.7118 32.3463 30.6125C32.1119 30.5131 31.8598 30.4622 31.6046 30.4627C31.3494 30.4633 31.0962 30.5152 30.8598 30.6156L30.8563 30.614Z" fill="white"></path><path d="M25.5722 19.28C20.0343 18.64 14.5245 17.8167 9.04279 16.81C8.79307 16.7758 8.53853 16.7918 8.29369 16.857C8.04884 16.9222 7.81848 17.0354 7.61579 17.1901C7.4131 17.3448 7.24207 17.5381 7.11239 17.7588C6.98272 17.9795 6.89697 18.2233 6.86006 18.4764C6.79833 18.9816 6.93007 19.4892 7.22822 19.8947C7.52637 20.3002 7.96825 20.5727 8.46291 20.6563C13.9446 21.663 19.4544 22.4863 24.9923 23.1262C25.4967 23.1954 26.01 23.0586 26.4193 22.7461C26.8287 22.4336 27.1005 21.971 27.1751 21.4599C27.2496 20.9488 27.1208 20.4313 26.8169 20.021C26.513 19.6108 26.0589 19.3414 25.5546 19.2723L25.5722 19.28Z" fill="white"></path><path d="M31.4236 8.52467L20.9979 2.69478C20.1204 2.2031 18.8156 2.80114 18.4628 3.7192C18.271 4.19487 18.2658 4.72464 18.4484 5.19937C18.6309 5.67411 18.9873 6.05769 19.4442 6.27119L29.87 12.1011C30.7489 12.5892 32.0537 11.9911 32.405 11.0767C32.5969 10.601 32.602 10.0713 32.4195 9.59655C32.2369 9.12181 31.8805 8.73818 31.4236 8.52467Z" fill="white"></path></svg>