<svg xmlns="http://www.w3.org/2000/svg" width="57" height="29" viewBox="0 0 57 29" fill="none"><path d="M53.7323 10.1107C46.1907 9.57345 38.6033 9.59874 31.0421 9.63666C24.0973 9.67458 17.1505 9.79049 10.2014 9.98433C8.7963 10.0222 7.39776 10.0601 5.9927 10.1107C5.12608 10.1107 4.29492 10.4437 3.68212 11.0363C3.06933 11.629 2.7251 12.4329 2.7251 13.271C2.7251 14.1092 3.06933 14.913 3.68212 15.5057C4.29492 16.0984 5.12608 16.4313 5.9927 16.4313C9.9661 16.3007 13.9395 16.1996 17.9129 16.128C25.8597 15.9699 33.813 15.8815 41.7598 15.9952C45.7528 16.0521 49.7524 16.1469 53.7323 16.4313C54.5989 16.4313 55.43 16.0984 56.0428 15.5057C56.6556 14.913 56.9999 14.1092 56.9999 13.271C56.9816 12.4384 56.6314 11.6448 56.0226 11.0559C55.4137 10.4671 54.5932 10.1284 53.7323 10.1107Z" fill="white"></path><path d="M13.4103 0.553868C11.1077 1.90196 8.8784 3.364 6.73138 4.9341C4.84283 6.18865 3.1104 7.6499 1.56856 9.28894C0.774904 10.102 0.243469 11.1212 0.0393025 12.2217C-0.0310391 12.7615 0.024645 13.3097 0.202204 13.826C0.379763 14.3423 0.674686 14.8136 1.06533 15.2051C1.74885 15.8937 2.51701 16.4986 3.35265 17.0065C8.27366 20.3627 13.711 23.0932 18.9783 25.8932C20.5511 26.736 22.1327 27.5661 23.7229 28.3836C24.0941 28.6279 24.5134 28.7956 24.9546 28.8762C25.3958 28.9569 25.8495 28.9486 26.2873 28.8521C26.7251 28.7556 27.1376 28.5729 27.4991 28.3153C27.8607 28.0578 28.1634 27.7309 28.3885 27.3551C28.6136 26.9794 28.7562 26.5628 28.8074 26.1313C28.8586 25.6999 28.8174 25.2629 28.6862 24.8475C28.555 24.4322 28.3368 24.0475 28.045 23.7174C27.7533 23.3873 27.3943 23.1189 26.9905 22.9289C23.2524 20.9948 19.5491 19.0122 15.8807 16.9812C13.3123 15.5717 10.7505 14.1369 8.26059 12.5947C7.80313 12.3103 7.35219 12.0195 6.90126 11.7161L6.3327 11.3306L6.07786 11.1472C5.65961 10.8565 6.82285 11.7414 6.38499 11.3748C6.17587 11.1978 5.97328 10.9766 5.73147 10.8186C5.48967 10.6605 6.33273 11.6403 6.07132 11.2231C6.40835 11.7749 6.53548 12.4233 6.43075 13.0561C6.33925 13.6882 6.36539 13.4543 6.43075 13.3026C6.4961 13.1509 6.07133 13.9346 6.20203 13.8272C6.30205 13.7018 6.38749 13.5661 6.45687 13.4227C6.51569 13.3278 6.71177 13.1003 6.35887 13.5428C6.00597 13.9852 6.28698 13.6313 6.35887 13.5428C6.66602 13.2204 6.97318 12.9107 7.29994 12.601C7.6267 12.2913 8.11031 11.8868 8.52856 11.5391C8.96146 11.1031 9.4488 10.7209 9.97935 10.4014C9.90093 10.4393 9.4108 10.8186 9.90748 10.4583L10.3127 10.1612C10.5871 9.95893 10.8681 9.76303 11.1491 9.56709C11.7569 9.13729 12.3778 8.72013 12.9986 8.30296C14.2076 7.50656 15.4363 6.73544 16.6845 6.00225C17.0883 5.81228 17.4472 5.5439 17.739 5.21379C18.0307 4.88368 18.249 4.49893 18.3802 4.08361C18.5114 3.66828 18.5527 3.23125 18.5014 2.7998C18.4502 2.36836 18.3076 1.9518 18.0825 1.57603C17.8574 1.20027 17.5546 0.873387 17.1931 0.615824C16.8316 0.358262 16.4191 0.175553 15.9813 0.0790495C15.5435 -0.0174543 15.0898 -0.025713 14.6486 0.0548996C14.2074 0.135512 13.7881 0.303226 13.4169 0.547541L13.4103 0.553868Z" fill="white"></path></svg>