<svg xmlns="http://www.w3.org/2000/svg" width="53" height="33" viewBox="0 0 53 33" fill="none"><g clip-path="url(#clip0_623_136)"><path d="M3.22659 22.5584C15.365 22.9364 27.5293 22.78 39.6742 22.6105L42.9524 22.5584C43.8082 22.5584 44.6289 22.215 45.234 21.6039C45.8391 20.9927 46.179 20.1638 46.179 19.2995C46.179 18.4351 45.8391 17.6062 45.234 16.9951C44.6289 16.3839 43.8082 16.0405 42.9524 16.0405C33.2727 16.21 23.5928 16.2881 13.8743 16.223C10.3251 16.223 6.77584 16.1513 3.22659 16.0405C2.37085 16.0405 1.55016 16.3839 0.945054 16.9951C0.339951 17.6062 0 18.4351 0 19.2995C0.0181101 20.1581 0.36388 20.9763 0.965102 21.5836C1.56632 22.1908 2.37653 22.5401 3.22659 22.5584Z" fill="white"></path><path d="M29.0198 6.04853C32.4208 7.94643 35.9386 9.62282 39.5514 11.0673L41.6874 11.9538L42.8941 12.4622L43.2814 12.6251C43.8235 12.8532 42.5974 12.3253 43.4363 12.6903C44.5265 13.1376 45.5908 13.6468 46.6241 14.2154C46.8177 14.3262 46.9984 14.4436 47.1855 14.5609L47.3662 14.6847C47.7663 14.9454 46.7209 14.0721 47.0113 14.411C47.3017 14.7499 47.3469 14.9259 46.8306 14.0916L46.9274 14.261C46.6773 13.8448 46.5477 13.3661 46.5531 12.8792C46.5424 12.3876 46.6723 11.9034 46.9274 11.4845C46.9274 11.5366 46.8629 11.5822 46.8371 11.6279C46.6048 12.0255 47.4824 10.8392 46.9791 11.4258C46.6758 11.7647 46.3337 12.0776 46.0368 12.4165C43.8879 14.5478 41.5778 16.5097 39.332 18.5368C36.17 21.3916 33.0401 24.2986 30.1685 27.4533C29.0263 28.7112 28.8778 30.836 30.1685 32.0614C31.4591 33.2867 33.5113 33.4041 34.7309 32.0614C37.4929 29.0306 40.4872 26.1953 43.5266 23.4838C45.8885 21.3395 48.3342 19.2734 50.6251 17.0247C51.5092 16.1513 52.5159 15.1801 52.8708 13.9482C53.0693 13.1918 53.049 12.3938 52.8122 11.6487C52.5755 10.9036 52.1322 10.2427 51.535 9.74419C50.5588 8.93807 49.472 8.27941 48.3084 7.78883C46.708 7.03927 45.0818 6.36795 43.4363 5.69009C42.5006 5.29902 41.5583 4.92747 40.6291 4.51684C40.7259 4.55595 41.2744 4.79063 40.7259 4.55599L39.816 4.16485L38.2027 3.4479C36.1958 2.52888 34.2147 1.55121 32.3045 0.443168C31.938 0.191229 31.5239 0.0182812 31.0882 -0.0648471C30.6526 -0.147975 30.2045 -0.139459 29.7722 -0.0399436C29.3399 0.0595718 28.9327 0.247982 28.5757 0.513583C28.2187 0.779183 27.9197 1.11626 27.6974 1.50376C27.4751 1.89125 27.3343 2.32081 27.2838 2.76572C27.2332 3.21062 27.2739 3.66129 27.4034 4.08958C27.533 4.51787 27.7485 4.91462 28.0366 5.25503C28.3247 5.59545 28.6792 5.87221 29.0779 6.0681L29.0198 6.04853Z" fill="white"></path></g><defs><clipPath id="clip0_623_136"><rect width="53" height="33" fill="white"></rect></clipPath></defs></svg>